<?xml version="1.0" standalone="no"?><!DOCTYPE svg PUBLIC "-//W3C//DTD SVG 1.1//EN" "http://www.w3.org/Graphics/SVG/1.1/DTD/svg11.dtd" ><svg xmlns="http://www.w3.org/2000/svg"><metadata></metadata><defs><font id="YouYuan" horiz-adv-x="256"><font-face font-family="YouYuan" font-weight="400" font-stretch="normal" units-per-em="256" panose-1="2 1 5 9 6 1 1 1 1 1" ascent="210" descent="-46" x-height="1" bbox="0 -52 262 210" underline-thickness="13" underline-position="-22" unicode-range="U+002d-ff1b" /><missing-glyph horiz-adv-x="256" d="M63 1 q-6 0 -10 4 q-4 4 -4 10 q0 6 4 10 q4 4 10 4 q6 0 10 -4 q4 -4 4 -10 q0 -6 -4 -10 q-4 -4 -10 -4 ZM67 68 l0 -10 l-8 0 l0 10 q0 27 -3.5 54.5 q-3.5 27.5 -3.5 40.5 q0 8 2.5 12.5 q2.5 4.5 8.5 4.5 q7 0 9 -5 q2 -5 2 -12 q0 -13 -3.5 -40.5 q-3.5 -27.5 -3.5 -54.5 Z" /><glyph glyph-name="" unicode="-" d="M8 89 l0 9 l111 0 l0 -9 l-111 0 Z" /><glyph glyph-name="" unicode="." d="M32 1 q-6 0 -10.5 4 q-4.5 4 -4.5 11 q0 7 4.5 11 q4.5 4 10.5 4 q6 0 10.5 -4.5 q4.5 -4.5 4.5 -10.5 q0 -7 -4.5 -11 q-4.5 -4 -10.5 -4 Z" /><glyph glyph-name="" unicode="0" d="M64 169 q-14 0 -23.5 -21.5 q-9.5 -21.5 -9.5 -57.5 q0 -38 9.5 -59 q9.5 -21 23.5 -21 q15 0 23.5 21 q8.5 21 8.5 59 q0 36 -8 57.5 q-8 21.5 -24 21.5 ZM64 2 q-22 0 -37 23 q-15 23 -15 65 q0 39 14.5 63 q14.5 24 37.5 24 q22 0 36.5 -23 q14.5 -23 14.5 -64 q0 -41 -14.5 -64.5 q-14.5 -23.5 -36.5 -23.5 Z" /><glyph glyph-name="" unicode="1" d="M73 178 l0 -152 q0 -8 5 -12 q5 -4 14 -4 l10 0 l0 -6 l-73 0 l0 6 l9 0 q10 0 14.5 4 q4.5 4 4.5 12 l0 121 q0 4 -2.5 6.5 q-2.5 2.5 -7.5 2.5 l-18 0 l0 6 l9 0 q12 0 19.5 4 q7.5 4 11.5 12 l4 0 Z" /><glyph glyph-name="" unicode="2" d="M93 133 q0 18 -8 27.5 q-8 9.5 -24 9.5 q-12 0 -20.5 -6.5 q-8.5 -6.5 -8.5 -16.5 q0 -6 3.5 -10 q3.5 -4 3.5 -8 q0 -5 -2.5 -7.5 q-2.5 -2.5 -7.5 -2.5 q-6 0 -9.5 3.5 q-3.5 3.5 -3.5 11.5 q0 21 15 32 q15 11 32 11 q24 0 35.5 -12 q11.5 -12 11.5 -30 q0 -12 -5.5 -24 q-5.5 -12 -17.5 -23 q-29 -28 -44.5 -45.5 q-15.5 -17.5 -18.5 -23.5 l59 0 q9 0 15 7 q6 7 8 21 l6 0 l-6 -43 l-93 0 l0 13 q5 9 16.5 23 q11.5 14 30.5 33 q17 17 25 32 q8 15 8 28 Z" /><glyph glyph-name="" unicode="3" d="M112 50 q0 -19 -14 -33.5 q-14 -14.5 -39 -14.5 q-18 0 -31 10 q-13 10 -13 23 q0 6 4 10.5 q4 4.5 8 4.5 q6 0 8.5 -4.5 q2.5 -4.5 2.5 -7.5 q0 -5 -2 -8.5 q-2 -3.5 -2 -6.5 q0 -6 7.5 -10 q7.5 -4 16.5 -4 q18 0 27 10.5 q9 10.5 9 32.5 q0 18 -9.5 29 q-9.5 11 -35.5 11 l0 7 q20 0 29.5 9.5 q9.5 9.5 9.5 26.5 q0 14 -7.5 24.5 q-7.5 10.5 -23.5 10.5 q-7 0 -15 -3.5 q-8 -3.5 -8 -11.5 q0 -8 2 -10 q2 -2 2 -5 q0 -5 -2 -8 q-2 -3 -7 -3 q-4 0 -7.5 3 q-3.5 3 -3.5 11 q0 15 13 24.5 q13 9.5 30 9.5 q20 0 32 -12.5 q12 -12.5 12 -26.5 q0 -15 -7.5 -25.5 q-7.5 -10.5 -23.5 -15.5 q22 -8 30 -21 q8 -13 8 -26 Z" /><glyph glyph-name="" unicode="4" d="M92 23 q0 -7 4 -10 q4 -3 11 -3 l9 0 l0 -6 l-66 0 l0 6 l11 0 q8 0 11.5 3 q3.5 3 3.5 10 l0 33 l-67 0 l0 5 l73 116 l10 0 l0 -115 l27 0 l0 -6 l-27 0 l0 -33 ZM75 152 l-57 -90 l58 0 l0 90 l-1 0 Z" /><glyph glyph-name="" unicode="5" d="M69 114 q19 0 31 -14.5 q12 -14.5 12 -38.5 q0 -27 -12.5 -43 q-12.5 -16 -38.5 -16 q-18 0 -32 10.5 q-14 10.5 -14 25.5 q0 6 3.5 10.5 q3.5 4.5 9.5 4.5 q6 0 8 -4 q2 -4 2 -7 q0 -6 -3 -9.5 q-3 -3.5 -3 -7.5 q0 -8 9.5 -12 q9.5 -4 20.5 -4 q16 0 24.5 13 q8.5 13 8.5 37 q0 20 -7.5 32.5 q-7.5 12.5 -22.5 12.5 q-11 0 -19 -4 q-8 -4 -15 -17 l-9 1 l5 91 l82 0 l-3 -15 l-72 0 l-4 -66 q10 14 19.5 17 q9.5 3 19.5 3 Z" /><glyph glyph-name="" unicode="6" d="M31 72 q0 -30 10.5 -46.5 q10.5 -16.5 25.5 -16.5 q15 0 23 11 q8 11 8 41 q0 20 -8.5 31 q-8.5 11 -20.5 11 q-11 0 -20.5 -6.5 q-9.5 -6.5 -17.5 -24.5 ZM70 113 q24 0 34.5 -16 q10.5 -16 10.5 -36 q0 -30 -14.5 -44.5 q-14.5 -14.5 -33.5 -14.5 q-27 0 -41 20.5 q-14 20.5 -14 59.5 q0 46 17 70.5 q17 24.5 46 24.5 q14 0 22.5 -8 q8.5 -8 8.5 -14 q0 -6 -2.5 -9 q-2.5 -3 -8.5 -3 q-5 0 -7.5 2.5 q-2.5 2.5 -2.5 7.5 q0 2 0.5 4 q0.5 2 0.5 4 q0 4 -3 6.5 q-3 2.5 -11 2.5 q-17 0 -29 -15.5 q-12 -15.5 -12 -67.5 q6 13 16.5 19.5 q10.5 6.5 22.5 6.5 Z" /><glyph glyph-name="" unicode="7" d="M113 168 q-21 -34 -33.5 -66.5 q-12.5 -32.5 -12.5 -56.5 q0 -4 0.5 -11.5 q0.5 -7.5 0.5 -17.5 q0 -8 -2.5 -11 q-2.5 -3 -8.5 -3 q-5 0 -8.5 3.5 q-3.5 3.5 -3.5 12.5 q0 19 8.5 47 q8.5 28 45.5 95 l-50 0 q-11 0 -17.5 -7 q-6.5 -7 -9.5 -21 l-6 1 l7 42 l90 0 l0 -7 Z" /><glyph glyph-name="" unicode="8" d="M25 45 q0 -16 10.5 -26 q10.5 -10 26.5 -10 q19 0 27.5 10 q8.5 10 8.5 25 q0 13 -12 25 q-12 12 -36 22 q-12 -8 -18.5 -20 q-6.5 -12 -6.5 -26 ZM113 47 q0 -19 -14 -32 q-14 -13 -37 -13 q-21 0 -36 13 q-15 13 -15 30 q0 17 8.5 29 q8.5 12 24.5 21 q-14 7 -21.5 17.5 q-7.5 10.5 -7.5 23.5 q0 17 13 29 q13 12 36 12 q21 0 34 -12 q13 -12 13 -29 q0 -12 -7.5 -22.5 q-7.5 -10.5 -23.5 -18.5 q17 -10 25 -22 q8 -12 8 -26 ZM97 135 q0 14 -8 24.5 q-8 10.5 -25 10.5 q-19 0 -27 -10 q-8 -10 -8 -21 q0 -11 11.5 -21.5 q11.5 -10.5 32.5 -18.5 q12 6 18 15 q6 9 6 21 Z" /><glyph glyph-name="" unicode="9" d="M28 122 q0 -22 8.5 -33.5 q8.5 -11.5 21.5 -11.5 q15 0 26 14 q11 14 11 26 q0 24 -8 38.5 q-8 14.5 -26 14.5 q-17 0 -25 -13.5 q-8 -13.5 -8 -34.5 ZM55 68 q-20 0 -32 12.5 q-12 12.5 -12 40.5 q0 24 13 40 q13 16 37 16 q25 0 39 -20 q14 -20 14 -58 q0 -42 -16.5 -69.5 q-16.5 -27.5 -45.5 -27.5 q-13 0 -22.5 6 q-9.5 6 -9.5 16 q0 4 2.5 8 q2.5 4 8.5 4 q6 0 8 -4.5 q2 -4.5 2 -10.5 q0 -4 1 -6.5 q1 -2.5 2 -3.5 q1 -1 3.5 -1.5 q2.5 -0.5 5.5 -0.5 q18 0 29 20 q11 20 13 67 q-5 -12 -15 -20 q-10 -8 -25 -8 Z" /><glyph glyph-name="" unicode="&gt;" d="M112 92 l-89 -89 l-6 6 l83 83 l-83 83 l6 6 l89 -89 Z" /><glyph glyph-name="" unicode="a" d="M81 68 l-45 0 l-9 -38 q-2 -9 0 -14.5 q2 -5.5 9 -5.5 l3 0 l0 -6 l-37 0 l0 6 l3 0 q4 0 7 2.5 q3 2.5 4 8.5 l39 153 l15 5 l38 -158 q2 -6 5 -8.5 q3 -2.5 7 -2.5 l3 0 l0 -6 l-43 0 l0 6 l4 0 q6 0 7.5 3.5 q1.5 3.5 -0.5 10.5 l-10 44 ZM60 157 l-1 0 l-21 -83 l42 0 l-20 83 Z" /><glyph glyph-name="" unicode="b" d="M4 4 l0 6 l8 0 q5 0 7 2 q2 2 2 6 l0 143 q0 4 -2 6 q-2 2 -7 2 l-6 0 l0 6 l58 0 q24 0 35.5 -9.5 q11.5 -9.5 11.5 -29.5 q0 -14 -6 -23 q-6 -9 -25 -16 q23 -7 31 -20 q8 -13 8 -29 q0 -20 -14 -32 q-14 -12 -38 -12 l-63 0 ZM64 10 q17 0 26.5 10.5 q9.5 10.5 9.5 29.5 q0 22 -10 32.5 q-10 10.5 -30 10.5 l-23 0 l0 -75 q0 -4 2.5 -6 q2.5 -2 6.5 -2 l18 0 ZM94 136 q0 18 -10 25.5 q-10 7.5 -26 7.5 l-12 0 q-4 0 -6.5 -2 q-2.5 -2 -2.5 -6 l0 -62 l26 0 q11 0 21 9 q10 9 10 28 Z" /><glyph glyph-name="" unicode="c" d="M69 2 q-28 0 -44.5 21 q-16.5 21 -16.5 66 q0 38 17.5 63 q17.5 25 47.5 25 q7 0 14 -2.5 q7 -2.5 12 -2.5 q4 0 6.5 1 q2.5 1 4.5 4 l9 -44 l-6 -2 q-6 19 -16 29 q-10 10 -26 10 q-21 0 -32.5 -23 q-11.5 -23 -11.5 -57 q0 -37 10 -58 q10 -21 33 -21 q16 0 27.5 11.5 q11.5 11.5 15.5 30.5 l6 -3 q-5 -21 -18.5 -34.5 q-13.5 -13.5 -31.5 -13.5 Z" /><glyph glyph-name="" unicode="d" d="M100 91 q0 43 -13 60.5 q-13 17.5 -36 17.5 q-7 0 -10.5 -2 q-3.5 -2 -3.5 -6 l0 -143 q0 -4 3 -6 q3 -2 8 -2 q22 0 37 16.5 q15 16.5 15 64.5 ZM21 161 q0 4 -2 6 q-2 2 -7 2 l-6 0 l0 6 l45 0 q31 0 49.5 -20 q18.5 -20 18.5 -62 q0 -46 -18 -67.5 q-18 -21.5 -53 -21.5 l-43 0 l0 6 l7 0 q5 0 7 2 q2 2 2 6 l0 143 Z" /><glyph glyph-name="" unicode="e" d="M8 169 l0 6 l98 0 l11 -34 l-5 -2 q-8 15 -17 22.5 q-9 7.5 -20 7.5 l-28 0 q-4 0 -6.5 -2 q-2.5 -2 -2.5 -6 l0 -62 l29 0 q10 0 14.5 5 q4.5 5 4.5 15 l0 6 l6 0 l0 -59 l-6 0 l0 4 q0 11 -4.5 17 q-4.5 6 -14.5 6 l-29 0 l0 -75 q0 -4 2.5 -6 q2.5 -2 6.5 -2 l26 0 q15 0 25.5 8.5 q10.5 8.5 16.5 26.5 l5 -2 l-11 -39 l-102 0 l0 6 l6 0 q5 0 7 2 q2 2 2 6 l0 143 q0 4 -2 6 q-2 2 -7 2 l-5 0 Z" /><glyph glyph-name="" unicode="i" d="M24 169 l0 6 l80 0 l0 -6 l-23 0 q-4 0 -6.5 -2 q-2.5 -2 -2.5 -6 l0 -143 q0 -4 2.5 -6 q2.5 -2 6.5 -2 l23 0 l0 -6 l-80 0 l0 6 l23 0 q5 0 7 2 q2 2 2 6 l0 143 q0 4 -2 6 q-2 2 -7 2 l-23 0 Z" /><glyph glyph-name="" unicode="l" d="M40 18 q0 -4 2.5 -6 q2.5 -2 6.5 -2 l27 0 q14 0 24 8.5 q10 8.5 15 26.5 l5 -2 l-9 -39 l-103 0 l0 6 l7 0 q5 0 7 2 q2 2 2 6 l0 143 q0 4 -2 6 q-2 2 -7 2 l-6 0 l0 6 l47 0 l0 -6 l-7 0 q-4 0 -6.5 -2 q-2.5 -2 -2.5 -6 l0 -143 Z" /><glyph glyph-name="" unicode="m" d="M112 18 q0 -4 2.5 -6 q2.5 -2 6.5 -2 l4 0 l0 -6 l-43 0 l0 6 l5 0 q5 0 7 2 q2 2 2 6 l0 131 l-2 0 l-34 -145 l-6 0 l0 0 l-31 142 l-2 0 l0 -128 q0 -4 2.5 -6 q2.5 -2 6.5 -2 l3 0 l0 -6 l-30 0 l0 6 l3 0 q5 0 7 2 q2 2 2 6 l0 143 q0 4 -2 6 q-2 2 -7 2 l-4 0 l0 6 l29 0 l29 -134 l2 0 l31 134 l32 0 l0 -6 l-4 0 q-4 0 -6.5 -2 q-2.5 -2 -2.5 -6 l0 -143 Z" /><glyph glyph-name="" unicode="n" d="M101 44 l2 0 l0 117 q0 4 -2 6 q-2 2 -7 2 l-8 0 l0 6 l40 0 l0 -6 l-8 0 q-4 0 -6.5 -2 q-2.5 -2 -2.5 -6 l0 -157 l-6 0 l0 0 l-76 149 l-2 0 l0 -135 q0 -4 2.5 -6 q2.5 -2 6.5 -2 l8 0 l0 -6 l-40 0 l0 6 l8 0 q5 0 7 2 q2 2 2 6 l0 143 q0 4 -2 6 q-2 2 -7 2 l-6 0 l0 6 l29 0 l68 -131 Z" /><glyph glyph-name="" unicode="o" d="M28 90 q0 -43 10.5 -62.5 q10.5 -19.5 26.5 -19.5 q17 0 27 18.5 q10 18.5 10 63.5 q0 36 -8.5 58 q-8.5 22 -28.5 22 q-17 0 -27 -20 q-10 -20 -10 -60 ZM121 90 q0 -41 -16 -64.5 q-16 -23.5 -40 -23.5 q-23 0 -39.5 24 q-16.5 24 -16.5 64 q0 39 15.5 63 q15.5 24 40.5 24 q26 0 41 -25.5 q15 -25.5 15 -61.5 Z" /><glyph glyph-name="" unicode="p" d="M38 84 l0 -66 q0 -4 2.5 -6 q2.5 -2 6.5 -2 l7 0 l0 -6 l-48 0 l0 6 l7 0 q5 0 7 2 q2 2 2 6 l0 143 q0 4 -2 6 q-2 2 -7 2 l-6 0 l0 6 l59 0 q25 0 38.5 -12.5 q13.5 -12.5 13.5 -31.5 q0 -23 -14.5 -35 q-14.5 -12 -34.5 -12 l-31 0 ZM63 90 q15 0 26.5 9 q11.5 9 11.5 31 q0 20 -9.5 29.5 q-9.5 9.5 -30.5 9.5 l-14 0 q-4 0 -6.5 -2 q-2.5 -2 -2.5 -6 l0 -71 l25 0 Z" /><glyph glyph-name="" unicode="r" d="M113 135 q0 -20 -11 -31 q-11 -11 -25 -13 l30 -74 q2 -4 4.5 -5.5 q2.5 -1.5 5.5 -1.5 l6 0 l0 -6 l-28 0 l-33 86 l-23 0 l0 -72 q0 -4 2.5 -6 q2.5 -2 6.5 -2 l6 0 l0 -6 l-46 0 l0 6 l6 0 q5 0 7 2 q2 2 2 6 l0 143 q0 4 -2 6 q-2 2 -7 2 l-6 0 l0 6 l57 0 q23 0 35.5 -10 q12.5 -10 12.5 -30 ZM39 96 l22 0 q15 0 25 9 q10 9 10 28 q0 17 -9 26.5 q-9 9.5 -28 9.5 l-11 0 q-4 0 -6.5 -2 q-2.5 -2 -2.5 -6 l0 -65 Z" /><glyph glyph-name="" unicode="s" d="M60 86 q-27 12 -37 21 q-10 9 -10 28 q0 15 12.5 28.5 q12.5 13.5 35.5 13.5 q10 0 19 -3.5 q9 -3.5 13 -3.5 q3 0 5.5 1.5 q2.5 1.5 4.5 5.5 l4 -41 l-5 -2 q-9 21 -18.5 28.5 q-9.5 7.5 -24.5 7.5 q-19 0 -26 -10.5 q-7 -10.5 -7 -22.5 q0 -11 6.5 -17.5 q6.5 -6.5 35.5 -19.5 q24 -10 34.5 -22.5 q10.5 -12.5 10.5 -29.5 q0 -18 -12.5 -32 q-12.5 -14 -36.5 -14 q-10 0 -18.5 3.5 q-8.5 3.5 -13.5 3.5 q-3 0 -6 -2 q-3 -2 -7 -5 l-8 49 l6 2 q7 -25 19.5 -34.5 q12.5 -9.5 28.5 -9.5 q17 0 25.5 10 q8.5 10 8.5 29 q0 10 -9.5 19.5 q-9.5 9.5 -29.5 18.5 Z" /><glyph glyph-name="" unicode="t" d="M89 4 l-52 0 l0 6 l9 0 q5 0 7 2 q2 2 2 6 l0 140 q0 8 -1 9 q-1 1 -8 1 q-14 0 -19.5 -5 q-5.5 -5 -13.5 -27 l-6 1 l9 38 l95 0 l8 -38 l-5 -1 q-8 21 -12.5 26.5 q-4.5 5.5 -18.5 5.5 q-10 0 -11 -1 q-1 -1 -1 -10 l0 -139 q0 -4 2.5 -6 q2.5 -2 6.5 -2 l9 0 l0 -6 Z" /><glyph glyph-name="" unicode="u" d="M65 10 q15 0 25.5 10 q10.5 10 10.5 25 l0 116 q0 4 -2 6 q-2 2 -7 2 l-6 0 l0 6 l36 0 l0 -6 l-6 0 q-4 0 -6.5 -2 q-2.5 -2 -2.5 -6 l0 -116 q0 -20 -13.5 -31.5 q-13.5 -11.5 -30.5 -11.5 q-18 0 -31.5 10 q-13.5 10 -13.5 32 l0 117 q0 4 -2 6 q-2 2 -7 2 l-5 0 l0 6 l44 0 l0 -6 l-5 0 q-4 0 -6.5 -2 q-2.5 -2 -2.5 -6 l0 -117 q0 -20 8.5 -27 q8.5 -7 22.5 -7 Z" /><glyph glyph-name="" unicode="v" d="M85 169 l0 6 l36 0 l0 -6 l-4 0 q-4 0 -7.5 -3 q-3.5 -3 -5.5 -11 l-41 -151 l-6 0 l-37 151 q-1 7 -3.5 10.5 q-2.5 3.5 -7.5 3.5 l-5 0 l0 6 l43 0 l0 -6 l-4 0 q-5 0 -6.5 -3 q-1.5 -3 -0.5 -8 l28 -117 l2 0 l30 114 q2 7 0 10.5 q-2 3.5 -8 3.5 l-3 0 Z" /><glyph glyph-name="" unicode="w" d="M126 175 l0 -6 l-4 0 q-2 0 -4.5 -2 q-2.5 -2 -3.5 -7 l-27 -156 l-6 0 l-16 106 l-2 0 l-21 -106 l-6 0 l-24 157 q0 4 -1.5 6 q-1.5 2 -4.5 2 l-4 0 l0 6 l35 0 l0 -6 l-3 0 q-4 0 -6 -2 q-2 -2 -2 -6 l16 -110 l2 0 l17 83 l-3 27 q0 4 -2.5 6 q-2.5 2 -4.5 2 l-3 0 l0 6 l34 0 l0 -6 l-3 0 q-4 0 -5.5 -2 q-1.5 -2 -1.5 -6 l15 -107 l2 0 l18 105 q1 5 -1.5 7.5 q-2.5 2.5 -6.5 2.5 l-3 0 l0 6 l30 0 Z" /><glyph glyph-name="" unicode="c" d="M86 89 q0 3 0.5 4 q0.5 1 1.5 4 q1 4 -4 9.5 q-5 5.5 -17 5.5 q-15 0 -25.5 -14.5 q-10.5 -14.5 -10.5 -38.5 q0 -22 9 -35.5 q9 -13.5 30 -13.5 q14 0 23.5 9 q9.5 9 13.5 21 l5 -2 q-4 -15 -15 -25.5 q-11 -10.5 -30 -10.5 q-24 0 -38 15 q-14 15 -14 43 q0 25 15 41.5 q15 16.5 39 16.5 q17 0 26.5 -9 q9.5 -9 9.5 -18 q0 -6 -2.5 -8.5 q-2.5 -2.5 -7.5 -2.5 q-4 0 -6.5 2.5 q-2.5 2.5 -2.5 6.5 Z" /><glyph glyph-name="" unicode="d" d="M92 94 q-5 8 -13 11.5 q-8 3.5 -16 3.5 q-15 0 -23.5 -14 q-8.5 -14 -8.5 -37 q0 -24 8 -35.5 q8 -11.5 23 -11.5 q11 0 18.5 7 q7.5 7 11.5 21 l0 55 ZM59 3 q-18 0 -31 14.5 q-13 14.5 -13 42.5 q0 26 14 41.5 q14 15.5 33 15.5 q8 0 16.5 -3.5 q8.5 -3.5 13.5 -10.5 l0 54 q0 6 -2 9 q-2 3 -7 3 l-8 0 l0 6 l11 0 q5 0 10 2 q5 2 10 6 l0 -158 q0 -5 2 -7 q2 -2 6 -2 l7 0 l0 -6 l-6 0 q-4 0 -9.5 -1.5 q-5.5 -1.5 -11.5 -4.5 l-2 0 l0 19 q-5 -9 -13.5 -14.5 q-8.5 -5.5 -19.5 -5.5 Z" /><glyph glyph-name="" unicode="g" d="M35 79 q0 -12 7 -20.5 q7 -8.5 19 -8.5 q13 0 19.5 7.5 q6.5 7.5 6.5 21.5 q0 17 -7.5 24.5 q-7.5 7.5 -18.5 7.5 q-11 0 -18.5 -7.5 q-7.5 -7.5 -7.5 -24.5 ZM84 25 q15 -2 22 -8.5 q7 -6.5 7 -17.5 q0 -15 -12.5 -24 q-12.5 -9 -39.5 -9 q-21 0 -34 8.5 q-13 8.5 -13 19.5 q0 7 5 14 q5 7 16 11 q-6 3 -9.5 6.5 q-3.5 3.5 -3.5 8.5 q0 6 4 10.5 q4 4.5 10 7.5 q-6 5 -10.5 12 q-4.5 7 -4.5 15 q0 15 10.5 26.5 q10.5 11.5 29.5 11.5 q8 0 15.5 -2 q7.5 -2 12.5 -7 q7 5 12.5 7.5 q5.5 2.5 9.5 2.5 q5 0 7 -3.5 q2 -3.5 2 -6.5 q0 -4 -1.5 -6.5 q-1.5 -2.5 -5.5 -2.5 q-3 0 -5 1.5 q-2 1.5 -3 4.5 q-1 3 -4.5 2.5 q-3.5 -0.5 -7.5 -3.5 q4 -4 6 -11 q2 -7 2 -14 q0 -12 -9.5 -23.5 q-9.5 -11.5 -30.5 -11.5 q-6 0 -11 1.5 q-5 1.5 -8 3.5 q-4 -2 -6 -5 q-2 -3 -2 -5 q0 -4 2 -6 q2 -2 6 -2 q13 -2 23.5 -3.5 q10.5 -1.5 18.5 -2.5 ZM43 17 q-9 -4 -12.5 -9.5 q-3.5 -5.5 -3.5 -13.5 q0 -8 9 -15 q9 -7 27 -7 q17 0 27 5.5 q10 5.5 10 16.5 q0 7 -2.5 11 q-2.5 4 -7.5 5 q-10 2 -22 3.5 q-12 1.5 -25 3.5 Z" /><glyph glyph-name="" unicode="i" d="M57 101 q0 4 -2 6.5 q-2 2.5 -7 2.5 l-21 0 l0 6 l10 0 q9 0 17 1.5 q8 1.5 15 5.5 l2 0 l0 -105 q0 -4 2.5 -6 q2.5 -2 6.5 -2 l21 0 l0 -6 l-74 0 l0 6 l21 0 q5 0 7 2 q2 2 2 6 l0 83 ZM65 177 q5 0 9 -3.5 q4 -3.5 4 -8.5 q0 -5 -4 -9 q-4 -4 -9 -4 q-5 0 -9 4 q-4 4 -4 9 q0 5 4 8.5 q4 3.5 9 3.5 Z" /><glyph glyph-name="" unicode="l" d="M37 175 q9 0 17 2 q8 2 15 6 l2 0 l0 -165 q0 -4 2.5 -6 q2.5 -2 6.5 -2 l23 0 l0 -6 l-78 0 l0 6 l23 0 q5 0 7 2 q2 2 2 6 l0 143 q0 4 -2 6 q-2 2 -7 2 l-22 0 l0 6 l11 0 Z" /><glyph glyph-name="" unicode="m" d="M7 116 q5 0 10 1 q5 1 8 3 l2 0 l0 -17 q5 8 11 11.5 q6 3.5 13 3.5 q9 0 14 -3.5 q5 -3.5 6 -11.5 q5 8 11.5 11.5 q6.5 3.5 13.5 3.5 q12 0 16.5 -7 q4.5 -7 4.5 -18 l0 -76 q0 -4 2 -5.5 q2 -1.5 6 -1.5 l2 0 l0 -6 l-34 0 l0 6 l2 0 q4 0 6 1.5 q2 1.5 2 5.5 l0 75 q0 11 -2.5 14.5 q-2.5 3.5 -7.5 3.5 q-7 0 -12.5 -5 q-5.5 -5 -8.5 -14 l0 -74 q0 -4 2 -5.5 q2 -1.5 6 -1.5 l2 0 l0 -6 l-34 0 l0 6 l2 0 q4 0 6 1.5 q2 1.5 2 5.5 l0 75 q0 9 -2 13.5 q-2 4.5 -8 4.5 q-7 0 -12.5 -5 q-5.5 -5 -8.5 -15 l0 -73 q0 -4 2 -5.5 q2 -1.5 6 -1.5 l2 0 l0 -6 l-34 0 l0 6 l2 0 q4 0 6 1.5 q2 1.5 2 5.5 l0 87 q0 3 -1 4.5 q-1 1.5 -4 1.5 l-4 0 l0 6 l3 0 Z" /><glyph glyph-name="" unicode="n" d="M8 4 l0 6 l5 0 q5 0 7 2 q2 2 2 6 l0 86 q0 3 -1 4.5 q-1 1.5 -4 1.5 l-8 0 l0 6 l7 0 q5 0 9.5 1 q4.5 1 8.5 4 l2 0 l0 -23 q9 10 18 15 q9 5 19 5 q17 0 25 -9 q8 -9 8 -27 l0 -64 q0 -4 2.5 -6 q2.5 -2 6.5 -2 l5 0 l0 -6 l-42 0 l0 6 l5 0 q5 0 7 2 q2 2 2 6 l0 67 q0 12 -5 18.5 q-5 6.5 -15 6.5 q-9 0 -18.5 -6 q-9.5 -6 -17.5 -17 l0 -69 q0 -4 2.5 -6 q2.5 -2 6.5 -2 l5 0 l0 -6 l-42 0 Z" /><glyph glyph-name="" unicode="o" d="M116 60 q0 -25 -15 -41.5 q-15 -16.5 -37 -16.5 q-23 0 -37.5 17 q-14.5 17 -14.5 41 q0 22 14.5 40 q14.5 18 37.5 18 q24 0 38 -18 q14 -18 14 -40 ZM28 59 q0 -26 10.5 -38.5 q10.5 -12.5 25.5 -12.5 q17 0 26.5 13.5 q9.5 13.5 9.5 37.5 q0 26 -10.5 39.5 q-10.5 13.5 -25.5 13.5 q-14 0 -25 -13.5 q-11 -13.5 -11 -39.5 Z" /><glyph glyph-name="" unicode="u" d="M58 13 q12 0 20.5 6 q8.5 6 12.5 19 l0 63 q0 4 -2 6.5 q-2 2.5 -7 2.5 l-6 0 l0 6 l6 0 q6 0 11 1 q5 1 10 5 l2 0 l0 -98 q0 -4 2.5 -6 q2.5 -2 6.5 -2 l6 0 l0 -6 l-6 0 q-5 0 -10 -1.5 q-5 -1.5 -11 -4.5 l-2 0 l0 21 q-5 -11 -15 -16.5 q-10 -5.5 -23 -5.5 q-16 0 -24 9 q-8 9 -8 29 l0 60 q0 4 -2 6.5 q-2 2.5 -7 2.5 l-6 0 l0 6 l6 0 q6 0 11 1 q5 1 10 5 l2 0 l0 -83 q0 -14 6 -20 q6 -6 17 -6 Z" /><glyph glyph-name="" unicode="w" d="M93 116 l34 0 l0 -6 l-4 0 q-4 0 -7 -3 q-3 -3 -5 -10 l-24 -94 l-6 0 l-18 76 l-19 -76 l-6 0 l-23 92 q-1 7 -4 11 q-3 4 -6 4 l-4 0 l0 6 l36 0 l0 -6 l-4 0 q-4 0 -5 -3.5 q-1 -3.5 0 -9.5 l15 -65 l2 0 l15 60 q-1 9 -4 13.5 q-3 4.5 -7 4.5 l-3 0 l0 6 l34 0 l0 -6 l-3 0 q-4 0 -5 -3.5 q-1 -3.5 0 -9.5 l15 -65 l1 0 l17 70 q1 4 -1 6 q-2 2 -6 2 l-5 0 l0 6 Z" /><glyph glyph-name="" unicode="y" d="M66 32 l2 0 l22 67 q2 5 -0.5 8 q-2.5 3 -6.5 3 l-6 0 l0 6 l42 0 l0 -6 l-6 0 q-4 0 -8 -3 q-4 -3 -6 -8 l-34 -99 q-5 -15 -12.5 -23.5 q-7.5 -8.5 -19.5 -8.5 q-7 0 -11 2.5 q-4 2.5 -4 7.5 q0 3 2.5 6 q2.5 3 7.5 3 q4 0 8 -3.5 q4 -3.5 6 -3.5 q3 0 5 1 q2 1 3 4 q3 5 6 12.5 q3 7.5 5 15.5 l-34 88 q-1 4 -4.5 6.5 q-3.5 2.5 -7.5 2.5 l-4 0 l0 6 l42 0 l0 -6 l-4 0 q-4 0 -6 -2.5 q-2 -2.5 -1 -7.5 l24 -68 Z" /><glyph glyph-name="" unicode="&#x201c;" d="M180 186 q-32 -32 -40 -60 q22 -8 20 -24 q-6 -28 -34 -18 q-18 12 -12 36 q22 48 66 66 ZM240 186 q-28 -28 -40 -60 q26 -2 26 -22 q-6 -26 -32 -20 q-22 8 -18 34 q10 42 64 68 Z" /><glyph glyph-name="" unicode="&#x201d;" d="M60 184 q22 -10 16 -38 q-22 -44 -60 -60 q24 26 32 52 q-24 8 -18 32 q10 20 30 14 ZM124 186 q22 -8 16 -36 q-22 -44 -72 -68 q30 32 40 58 q-18 10 -16 30 q10 24 32 16 Z" /><glyph glyph-name="" unicode="&#x3001;" d="M20 32 q48 0 66 -28 q6 -26 -14 -28 q-12 0 -16 12 q-10 22 -36 44 Z" /><glyph glyph-name="" unicode="&#x3002;" d="M36 46 q36 8 46 -22 q6 -34 -26 -44 q-32 -6 -42 26 q-4 30 22 40 ZM32 32 q-14 -16 -4 -34 q16 -18 36 -4 q14 12 6 32 q-14 20 -38 6 Z" /><glyph glyph-name="" unicode="&#x4e00;" d="M22 96 l216 0 q8 -6 0 -12 l-216 0 q-8 6 0 12 Z" /><glyph glyph-name="" unicode="&#x4e07;" d="M20 188 l220 0 q8 -6 0 -12 l-152 0 l0 -48 l108 0 q26 0 24 -20 q4 -128 -36 -138 q-32 -10 -78 16 q-4 12 8 10 q44 -24 68 -14 q28 14 26 122 q2 12 -12 12 l-108 0 q-4 -102 -64 -146 q-10 -2 -8 8 q56 42 60 138 l0 60 l-56 0 q-8 6 0 12 Z" /><glyph glyph-name="" unicode="&#x4e09;" d="M36 180 l184 0 q8 -6 0 -12 l-184 0 q-8 6 0 12 ZM40 88 l172 0 q8 -6 0 -12 l-172 0 q-10 6 0 12 ZM12 -8 l228 0 q10 -6 0 -12 l-228 0 q-8 6 0 12 Z" /><glyph glyph-name="" unicode="&#x4e0a;" d="M124 194 l0 -84 l96 0 q8 -6 0 -12 l-96 0 l0 -114 l120 0 q8 -6 0 -12 l-232 0 q-8 6 0 12 l100 0 l0 210 q6 8 12 0 Z" /><glyph glyph-name="" unicode="&#x4e0b;" d="M10 192 l234 0 q8 -6 0 -12 l-120 0 l0 -34 q66 -50 92 -78 q2 -10 -8 -10 q-44 42 -84 72 l0 -158 q-6 -10 -12 0 l0 208 l-102 0 q-8 6 0 12 Z" /><glyph glyph-name="" unicode="&#x4e0d;" d="M20 192 l216 0 q8 -6 0 -12 l-90 0 q-4 -14 -14 -34 l0 -174 q-6 -10 -12 0 l0 156 q-38 -54 -106 -86 q-12 2 -4 12 q92 44 122 126 l-112 0 q-8 6 0 12 ZM152 128 q60 -52 90 -86 q2 -12 -10 -8 q-34 38 -88 84 q-4 12 8 10 Z" /><glyph glyph-name="" unicode="&#x4e0e;" d="M68 194 l-4 -30 l156 0 q10 -6 0 -12 l-158 0 l-4 -34 q-2 -16 10 -14 l140 0 q22 0 20 -20 q2 -60 -8 -92 q-8 -26 -38 -26 q-32 2 -62 16 q-4 12 8 10 q70 -28 80 4 q10 32 8 84 q2 12 -12 12 l-140 0 q-20 -2 -18 26 l10 78 q8 10 12 -2 ZM184 54 q10 -8 0 -12 l-162 0 q-10 6 0 12 l162 0 Z" /><glyph glyph-name="" unicode="&#x4e13;" d="M108 200 q8 8 12 -2 l-8 -34 l116 0 q8 -6 0 -12 l-118 0 l-10 -40 l140 0 q10 -6 0 -12 l-144 0 l-8 -24 q-4 -14 12 -12 l80 0 q36 -2 20 -24 q-28 -28 -52 -42 l58 -20 q8 -10 -4 -12 q-76 26 -126 42 q-10 8 2 12 q22 -6 56 -18 q34 22 52 40 q10 10 -10 10 l-80 0 q-28 -2 -20 24 l8 24 l-72 0 q-10 6 0 12 l76 0 l10 40 l-70 0 q-8 6 0 12 l72 0 l8 36 Z" /><glyph glyph-name="" unicode="&#x4e1a;" d="M98 194 l0 -212 l52 0 l0 212 q6 8 12 0 l0 -212 l76 0 q8 -6 0 -12 l-224 0 q-8 6 0 12 l72 0 l0 212 q6 8 12 0 ZM34 160 q24 -82 32 -132 q-4 -12 -12 -2 q-10 54 -32 130 q2 14 12 4 ZM216 162 q10 8 12 -4 q-10 -72 -38 -138 q-10 -6 -12 4 q24 56 38 138 Z" /><glyph glyph-name="" unicode="&#x4e24;" d="M12 196 l230 0 q10 -6 0 -12 l-66 0 l0 -40 l36 0 q26 0 24 -26 l0 -128 q-8 -30 -56 -12 q-6 10 6 12 q38 -14 38 6 l0 120 q2 16 -14 16 l-34 0 l0 -20 q32 -46 42 -66 q-2 -12 -12 -4 q-10 20 -32 52 q-10 -48 -44 -78 q-12 -2 -6 10 q42 40 40 106 l-68 0 l0 -20 q24 -34 36 -56 q0 -10 -10 -6 q-12 20 -28 44 q-8 -48 -44 -84 q-10 -2 -6 10 q44 46 40 112 l-34 0 q-14 0 -14 -16 l0 -144 q-6 -10 -12 0 l0 144 q0 28 24 28 l36 0 l0 40 l-72 0 q-10 6 0 12 ZM164 184 l-68 0 l0 -40 l68 0 l0 40 Z" /><glyph glyph-name="" unicode="&#x4e2a;" d="M122 196 q8 8 16 0 q54 -60 108 -94 q6 -12 -8 -10 q-50 30 -104 90 q-4 6 -8 0 q-44 -58 -114 -90 q-12 -2 -6 10 q72 34 116 94 ZM136 132 l0 -162 q-6 -8 -12 0 l0 162 q6 10 12 0 Z" /><glyph glyph-name="" unicode="&#x4e2d;" d="M132 200 l0 -44 l76 0 q22 0 20 -20 l0 -80 q2 -24 -22 -22 l-74 0 l0 -66 q-6 -10 -12 0 l0 66 l-72 0 q-20 -2 -20 20 l0 82 q2 18 20 20 l72 0 l0 44 q6 10 12 0 ZM120 144 l-68 0 q-12 0 -12 -12 l0 -74 q0 -14 12 -12 l68 0 l0 98 ZM204 144 l-72 0 l0 -98 l70 0 q16 -2 14 14 l0 72 q2 12 -12 12 Z" /><glyph glyph-name="" unicode="&#x4e30;" d="M134 200 l0 -40 l86 0 q10 -6 0 -12 l-86 0 l0 -44 l86 0 q10 -6 0 -12 l-86 0 l0 -48 l102 0 q8 -6 0 -12 l-102 0 l0 -66 q-6 -8 -12 0 l0 66 l-106 0 q-8 6 0 12 l106 0 l0 48 l-86 0 q-8 6 0 12 l86 0 l0 44 l-86 0 q-10 6 0 12 l86 0 l0 40 q6 10 12 0 Z" /><glyph glyph-name="" unicode="&#x4e3a;" d="M102 200 q6 8 12 0 l0 -58 l94 0 q22 0 20 -20 l-4 -114 q0 -40 -32 -42 q-28 0 -58 10 q-4 12 6 12 q24 -10 48 -10 q24 0 24 32 l4 108 q2 12 -12 12 l-90 0 q2 -104 -90 -164 q-12 0 -6 10 q86 56 84 154 l-80 0 q-10 6 0 12 l80 0 l0 58 ZM54 192 q18 -12 30 -34 q2 -10 -8 -8 q-16 22 -30 34 q-2 12 8 8 ZM144 102 q26 -36 44 -76 q0 -12 -10 -6 q-22 46 -44 74 q-2 12 10 8 Z" /><glyph glyph-name="" unicode="&#x4e3b;" d="M114 200 q12 -18 20 -38 q0 -8 -10 -4 q-12 22 -20 36 q0 12 10 6 ZM28 148 l198 0 q8 -6 0 -12 l-92 0 l0 -68 l78 0 q8 -6 0 -12 l-78 0 l0 -72 l108 0 q8 -6 0 -12 l-232 0 q-8 6 0 12 l112 0 l0 72 l-82 0 q-6 6 0 12 l82 0 l0 68 l-94 0 q-8 6 0 12 Z" /><glyph glyph-name="" unicode="&#x4e3e;" d="M102 192 q0 12 10 8 q14 -16 28 -38 q2 -12 -10 -6 q-14 20 -28 36 ZM202 198 q12 4 10 -8 q-10 -20 -28 -46 l54 0 q8 -6 0 -12 l-62 0 q30 -32 70 -52 q6 -10 -6 -10 q-52 26 -78 62 l-74 0 q-18 -40 -68 -66 q-14 0 -6 10 q48 26 60 56 l-54 0 q-8 6 0 12 l148 0 q22 32 34 54 ZM48 198 q22 -18 36 -38 q2 -10 -8 -8 q-16 18 -36 36 q-2 10 8 10 ZM132 110 l0 -30 l68 0 q8 -6 0 -12 l-68 0 l0 -36 l96 0 q8 -6 0 -12 l-96 0 l0 -52 q-6 -10 -12 0 l0 52 l-92 0 q-8 6 0 12 l92 0 l0 36 l-64 0 q-8 4 0 12 l64 0 l0 30 q6 8 12 0 Z" /><glyph glyph-name="" unicode="&#x4e45;" d="M68 200 q8 8 12 -2 q-2 -10 -6 -26 l78 0 q18 0 20 -16 q0 -40 -16 -80 q44 -72 82 -98 q4 -12 -8 -10 q-44 34 -80 94 q-38 -70 -128 -92 q-12 2 -2 12 q132 32 140 170 q0 8 -12 8 l-78 0 q-12 -36 -40 -72 q-12 -4 -10 8 q38 46 48 104 Z" /><glyph glyph-name="" unicode="&#x4e4b;" d="M112 202 q14 -24 22 -44 q-2 -10 -12 -4 q-8 20 -22 42 q0 12 12 6 ZM22 148 l180 0 q30 0 18 -22 q-46 -68 -148 -118 q34 -26 72 -24 l94 0 q8 -6 0 -12 l-94 0 q-38 -4 -82 28 q-16 10 -42 -24 q-10 -2 -8 8 q20 30 46 30 q100 46 148 114 q8 8 -10 8 l-174 0 q-8 6 0 12 Z" /><glyph glyph-name="" unicode="&#x4e50;" d="M216 196 q10 -4 2 -12 q-88 -10 -150 -14 q-14 0 -16 -12 l-10 -64 q0 -10 12 -8 l70 0 l0 66 q6 8 12 0 l0 -66 l104 0 q10 -6 0 -12 l-104 0 l0 -86 q-2 -24 -32 -22 q-14 2 -30 8 q-6 12 6 12 q46 -18 44 6 l0 82 l-70 0 q-26 -2 -24 18 l10 64 q2 24 24 26 q62 2 152 14 ZM74 52 q-18 -42 -50 -80 q-10 -2 -8 10 q28 32 48 76 q10 6 10 -6 ZM188 60 q32 -46 46 -80 q-2 -14 -12 -4 q-16 34 -44 76 q-2 12 10 8 Z" /><glyph glyph-name="" unicode="&#x4e70;" d="M24 192 l188 0 q24 -2 24 -22 q-2 -28 -14 -52 q-10 -8 -12 4 q26 58 0 58 l-186 0 q-8 6 0 12 ZM132 164 q6 10 12 0 q2 -38 -8 -88 l92 0 q10 -6 0 -12 l-96 0 l-2 -6 q52 -36 98 -74 q6 -12 -8 -10 q-44 36 -94 72 q-22 -48 -92 -78 q-14 0 -6 10 q74 30 92 86 l-96 0 q-10 4 0 12 l100 0 q10 54 8 88 ZM68 166 q26 -14 50 -36 q4 -10 -8 -8 q-28 22 -48 34 q-4 10 6 10 ZM44 132 q26 -14 56 -38 q4 -10 -6 -10 q-32 24 -58 38 q-4 12 8 10 Z" /><glyph glyph-name="" unicode="&#x4e86;" d="M30 194 l174 0 q36 -2 20 -20 q-36 -30 -86 -58 q-10 -6 -2 -12 q30 -28 34 -62 q6 -68 -54 -74 q-22 -2 -42 12 q-6 12 6 12 q16 -12 32 -12 q52 2 46 62 q-4 32 -34 56 q-14 12 8 28 q42 24 76 50 q10 6 -12 6 l-166 0 q-8 6 0 12 Z" /><glyph glyph-name="" unicode="&#x4e8b;" d="M122 198 q6 10 12 0 l0 -12 l100 0 q8 -6 0 -12 l-100 0 l0 -16 l64 0 q22 0 20 -20 l0 -12 q2 -22 -20 -20 l-64 0 l0 -16 l62 0 q24 0 22 -20 l0 -16 l24 0 q8 -6 0 -12 l-24 0 l0 -16 q2 -22 -26 -20 l-58 0 l0 -14 q2 -28 -24 -26 q-20 2 -40 10 q-6 10 4 12 q22 -8 34 -10 q16 -2 14 14 l0 14 l-88 0 q-8 6 0 12 l88 0 l0 24 l-112 0 q-8 6 0 12 l112 0 l0 24 l-88 0 q-6 6 0 12 l88 0 l0 16 l-64 0 q-20 -2 -20 20 l0 12 q0 20 20 20 l64 0 l0 16 l-104 0 q-8 6 0 12 l104 0 l0 12 ZM122 146 l-60 0 q-12 0 -12 -12 l0 -4 q0 -14 12 -12 l60 0 l0 28 ZM194 146 l-60 0 l0 -28 l60 0 q14 -2 12 12 l0 6 q2 10 -12 10 ZM194 78 l-60 0 l0 -24 l72 0 l0 12 q2 12 -12 12 ZM206 42 l-72 0 l0 -24 l58 0 q16 -2 14 12 l0 12 Z" /><glyph glyph-name="" unicode="&#x4e8e;" d="M32 190 l192 0 q8 -6 0 -12 l-88 0 l0 -78 l106 0 q10 -6 0 -12 l-106 0 l0 -94 q0 -28 -32 -28 q-20 2 -44 16 q-6 10 6 10 q24 -12 40 -14 q18 0 18 18 l0 92 l-116 0 q-8 6 0 12 l116 0 l0 78 l-92 0 q-8 6 0 12 Z" /><glyph glyph-name="" unicode="&#x4e92;" d="M24 192 l208 0 q8 -6 0 -12 l-146 0 l-10 -48 l104 0 q28 0 24 -22 l-20 -126 l60 0 q8 -6 0 -12 l-234 0 q-8 6 0 12 l160 0 l8 48 l-112 0 q-22 -2 -18 22 l26 126 l-50 0 q-8 6 0 12 ZM178 120 l-104 0 l-14 -66 q-2 -12 8 -10 l112 0 l10 64 q4 12 -12 12 Z" /><glyph glyph-name="" unicode="&#x4ea4;" d="M126 200 l4 -26 l100 0 q10 -6 0 -12 l-208 0 q-8 6 0 12 l96 0 l-4 24 q4 10 12 2 ZM162 154 q42 -42 76 -84 q2 -12 -10 -8 q-10 12 -30 36 q-24 -48 -60 -78 q48 -36 96 -44 q10 -8 -2 -12 q-52 8 -104 48 q-40 -28 -106 -48 q-10 4 -2 12 q60 18 98 44 q-30 32 -50 86 q-20 -24 -46 -42 q-10 0 -6 10 q36 24 70 76 q10 6 10 -6 q-8 -12 -20 -28 q18 -52 52 -88 q40 34 60 80 q-18 20 -36 38 q-2 12 10 8 Z" /><glyph glyph-name="" unicode="&#x4ea7;" d="M186 158 q10 6 12 -4 q-12 -28 -24 -46 l56 0 q10 -6 0 -12 l-172 0 q-12 0 -12 -16 q2 -68 -24 -114 q-10 -6 -10 6 q24 42 22 112 q0 24 20 24 l40 0 q-6 14 -22 44 q0 8 10 6 q16 -26 26 -50 l50 0 q16 20 28 50 ZM38 176 l90 0 q-6 10 -14 24 q4 8 12 4 q12 -20 16 -28 l84 0 q10 -6 0 -12 l-188 0 q-10 6 0 12 Z" /><glyph glyph-name="" unicode="&#x4eab;" d="M116 196 q0 10 10 8 q6 -8 12 -24 l104 0 q8 -6 0 -12 l-228 0 q-8 6 0 12 l110 0 q-2 8 -8 16 ZM62 152 l132 0 q22 0 20 -20 l0 -16 q2 -22 -20 -20 l-132 0 q-20 -2 -20 20 l0 16 q0 20 20 20 ZM190 140 l-124 0 q-12 0 -12 -12 l0 -8 q0 -14 12 -12 l124 0 q14 -2 12 12 l0 8 q2 12 -12 12 ZM42 80 l148 0 q24 -2 16 -16 q-16 -12 -62 -26 q-6 -2 0 -10 l100 0 q8 -6 0 -12 l-94 0 q16 -40 -6 -50 q-30 -8 -72 8 q-4 10 6 12 q40 -16 62 -8 q10 6 -4 38 l-120 0 q-8 6 0 12 l114 0 l-4 8 q0 6 8 10 q66 22 52 22 l-144 0 q-6 6 0 12 Z" /><glyph glyph-name="" unicode="&#x4eba;" d="M136 196 l0 -48 q30 -112 108 -172 q6 -12 -8 -10 q-72 54 -104 156 q-16 -90 -114 -154 q-12 0 -6 10 q108 70 112 178 l0 40 q6 8 12 0 Z" /><glyph glyph-name="" unicode="&#x4eca;" d="M116 196 q8 10 18 0 q52 -52 112 -80 q6 -10 -6 -10 q-54 22 -112 78 q-4 4 -8 -2 q-44 -50 -106 -76 q-12 2 -4 12 q58 24 106 78 ZM108 138 q28 -16 54 -34 q6 -12 -8 -10 q-24 16 -54 34 q-4 12 8 10 ZM22 78 l184 0 q32 0 24 -26 q-36 -88 -174 -86 q-8 6 0 12 q126 -2 160 74 q8 14 -10 14 l-184 0 q-8 4 0 12 Z" /><glyph glyph-name="" unicode="&#x4ecb;" d="M118 200 q10 10 22 0 q40 -52 106 -88 q6 -10 -6 -10 q-58 28 -106 84 q-6 6 -10 0 q-56 -66 -110 -84 q-12 0 -6 10 q64 28 110 88 ZM86 112 q4 -102 -48 -146 q-10 0 -6 10 q46 44 42 136 q6 8 12 0 ZM182 112 l0 -144 q-6 -10 -12 0 l0 144 q6 8 12 0 Z" /><glyph glyph-name="" unicode="&#x4ed6;" d="M166 194 l0 -46 l40 18 q26 8 24 -22 l0 -76 q2 -38 -26 -34 q-8 0 -30 10 q-4 10 6 12 q42 -22 38 10 l0 74 q2 18 -12 12 l-40 -18 l0 -116 q-6 -8 -12 0 l0 110 l-48 -20 l0 -106 q0 -24 16 -20 l90 0 q22 -4 20 44 q6 8 12 0 q4 -58 -30 -56 l-96 0 q-24 -2 -24 28 l0 104 l-18 -6 q-10 0 -4 12 l22 8 l0 66 q6 8 12 0 l0 -60 l48 20 l0 52 q6 8 12 0 ZM64 200 q6 8 12 -2 q-6 -30 -22 -68 l0 -162 q-6 -8 -12 0 l0 142 q-10 -20 -26 -36 q-12 -2 -8 10 q44 58 56 116 Z" /><glyph glyph-name="" unicode="&#x4ee5;" d="M30 196 q6 10 12 0 l0 -166 q0 -14 10 -10 q42 18 68 60 q12 6 10 -8 q-34 -54 -82 -66 q-18 -6 -18 22 l0 168 ZM216 194 q0 -102 -24 -148 q34 -40 54 -68 q2 -16 -10 -8 q-22 30 -52 64 q-38 -50 -126 -66 q-12 4 -2 12 q86 16 124 72 q24 44 24 142 q6 12 12 0 ZM86 188 q30 -40 58 -82 q2 -12 -10 -8 q-28 40 -58 82 q-2 12 10 8 Z" /><glyph glyph-name="" unicode="&#x4eec;" d="M88 192 q0 12 10 8 q16 -26 24 -44 q0 -12 -10 -6 q-12 24 -24 42 ZM136 188 l70 0 q28 -2 26 -24 l0 -180 q-2 -18 -28 -16 q-16 2 -28 8 q-6 10 6 12 q36 -16 38 0 l0 174 q2 14 -16 14 l-68 0 q-12 6 0 12 ZM92 148 l0 -176 q-6 -10 -12 0 l0 176 q6 12 12 0 ZM62 196 q-4 -32 -12 -62 l0 -166 q-6 -8 -12 0 l0 138 q-8 -20 -22 -36 q-10 -2 -8 8 q34 48 42 120 q8 8 12 -2 Z" /><glyph glyph-name="" unicode="&#x4ef6;" d="M170 198 l0 -54 l62 0 q10 -6 0 -12 l-62 0 l0 -76 l72 0 q10 -6 0 -12 l-72 0 l0 -74 q-6 -10 -12 0 l0 74 l-80 0 q-8 6 0 12 l80 0 l0 76 l-54 0 q-8 -24 -22 -44 q-10 -6 -10 6 q26 42 34 96 q6 10 12 0 q-4 -24 -10 -46 l50 0 l0 54 q6 10 12 0 ZM54 198 q8 10 12 -2 q-8 -34 -14 -52 l0 -176 q-6 -10 -12 0 l0 146 q-10 -20 -22 -38 q-12 -4 -10 8 q32 46 46 114 Z" /><glyph glyph-name="" unicode="&#x4f11;" d="M144 202 q6 8 12 0 l0 -54 l84 0 q8 -6 0 -12 l-82 0 q40 -78 90 -118 q4 -14 -8 -10 q-48 38 -84 104 l0 -144 q-6 -10 -12 0 l0 138 q-26 -56 -74 -98 q-12 -2 -8 10 q54 46 80 118 l-76 0 q-8 6 0 12 l78 0 l0 54 ZM64 194 q0 -16 -12 -56 l0 -166 q-6 -10 -12 0 l0 138 q-8 -20 -24 -38 q-10 -4 -10 6 q36 50 46 118 q8 10 12 -2 Z" /><glyph glyph-name="" unicode="&#x4f1a;" d="M118 196 q10 10 22 0 q50 -48 108 -82 q4 -10 -6 -10 q-48 24 -106 78 q-8 8 -14 0 q-58 -56 -108 -78 q-12 0 -6 10 q60 30 110 82 ZM66 122 l128 0 q10 -6 0 -12 l-128 0 q-10 6 0 12 ZM28 72 l202 0 q10 -6 0 -12 l-122 0 q-24 -40 -42 -68 q-6 -8 6 -6 q52 2 130 6 q-10 26 -18 40 q0 10 10 6 q18 -34 28 -68 q-4 -12 -12 -2 q-2 8 -4 14 q-90 -6 -142 -8 q-22 0 -12 18 q22 34 42 68 l-66 0 q-8 6 0 12 Z" /><glyph glyph-name="" unicode="&#x4f4e;" d="M228 198 q12 -4 2 -12 q-22 -4 -58 -6 q0 -32 2 -64 l66 0 q8 -6 0 -12 l-66 0 q10 -102 42 -120 q16 -12 16 46 q4 10 12 0 q0 -66 -26 -62 q-44 16 -56 136 l-62 0 l0 -110 q0 -22 40 32 q12 6 10 -8 q-28 -36 -44 -44 q-18 -8 -18 16 l0 180 q0 20 20 20 q58 0 120 8 ZM160 180 q-18 -2 -48 -2 q-12 0 -12 -12 l0 -50 l62 0 q-2 28 -2 64 ZM156 12 q16 -20 24 -38 q2 -10 -10 -6 q-8 18 -22 34 q-2 12 8 10 ZM64 196 q-6 -32 -14 -62 l0 -166 q-6 -8 -12 0 l0 138 q-8 -20 -24 -36 q-10 -2 -8 8 q36 48 46 120 q8 8 12 -2 Z" /><glyph glyph-name="" unicode="&#x4f53;" d="M56 196 q6 10 12 0 q-6 -36 -18 -70 l0 -158 q-6 -8 -12 0 l0 136 q-8 -18 -22 -34 q-12 -4 -10 8 q40 52 50 118 ZM144 198 q6 8 12 0 l0 -46 l84 0 q8 -6 0 -12 l-82 0 q38 -80 90 -120 q2 -12 -8 -10 q-48 36 -84 106 l0 -88 l44 0 q8 -6 0 -12 l-44 0 l0 -50 q-6 -8 -12 0 l0 50 l-46 0 q-8 6 0 12 l46 0 l0 86 q-30 -66 -80 -104 q-10 -2 -8 8 q58 48 86 122 l-68 0 q-8 4 0 12 l70 0 l0 46 Z" /><glyph glyph-name="" unicode="&#x4f5c;" d="M108 198 q8 10 12 -2 q-2 -8 -6 -24 l128 0 q10 -6 0 -12 l-100 0 l0 -56 l82 0 q8 -6 0 -12 l-82 0 l0 -60 l86 0 q10 -6 0 -12 l-86 0 l0 -52 q-6 -10 -12 0 l0 192 l-18 0 q-14 -46 -34 -74 q-10 -6 -10 6 q28 40 40 106 ZM72 194 q-8 -40 -18 -62 l0 -162 q-6 -12 -12 0 l0 138 q-10 -20 -22 -32 q-12 -4 -8 8 q36 46 48 114 q10 10 12 -4 Z" /><glyph glyph-name="" unicode="&#x4f60;" d="M100 196 q8 10 12 -2 q-2 -12 -6 -28 l114 0 q22 0 20 -22 q-2 -16 -10 -32 q-10 -6 -12 4 q20 38 0 38 l-54 0 l0 -166 q-2 -22 -30 -20 q-12 2 -22 6 q-6 12 6 12 q32 -14 34 4 l0 164 l-50 0 q-12 -30 -28 -48 q-10 -2 -8 8 q24 30 34 82 ZM106 98 q8 10 12 -2 q-12 -52 -42 -100 q-12 -6 -10 6 q28 46 40 96 ZM198 96 q2 10 12 4 q20 -46 30 -102 q-2 -14 -12 -4 q-10 56 -30 102 ZM62 196 q-4 -32 -12 -62 l0 -166 q-6 -8 -12 0 l0 138 q-8 -20 -22 -36 q-10 -2 -8 8 q34 48 42 120 q8 8 12 -2 Z" /><glyph glyph-name="" unicode="&#x4fdd;" d="M194 182 l-80 0 q-20 0 -20 -16 l0 -32 q0 -16 16 -14 l92 0 q16 -2 14 14 l0 30 q2 18 -22 18 ZM148 108 l-42 0 q-24 -2 -24 22 l0 38 q0 26 28 26 l86 0 q34 0 32 -28 l0 -34 q2 -26 -24 -24 l-44 0 l0 -32 l84 0 q8 -6 0 -12 l-78 0 q34 -46 80 -74 q6 -12 -6 -12 q-48 30 -80 74 l0 -86 q-6 -8 -12 0 l0 86 q-30 -44 -74 -72 q-12 -2 -8 10 q44 26 76 74 l-74 0 q-8 6 0 12 l80 0 l0 32 ZM62 196 q-4 -32 -12 -62 l0 -166 q-6 -8 -12 0 l0 138 q-8 -20 -22 -36 q-10 -2 -8 8 q34 48 42 120 q8 8 12 -2 Z" /><glyph glyph-name="" unicode="&#x4fe1;" d="M52 200 q8 10 12 -2 q-4 -26 -16 -68 l0 -160 q-6 -10 -12 0 l0 134 q-8 -18 -22 -32 q-10 -2 -8 8 q34 46 46 120 ZM136 196 q0 12 10 6 q10 -14 16 -28 l80 0 q8 -6 0 -12 l-172 0 q-8 6 0 12 l78 0 q-6 12 -12 22 ZM82 132 l142 0 q8 -6 0 -12 l-142 0 q-8 6 0 12 ZM82 94 l142 0 q8 -6 0 -12 l-142 0 q-8 6 0 12 ZM100 54 l106 0 q22 0 20 -20 l0 -44 q2 -22 -20 -20 l-106 0 q-20 -2 -20 20 l0 44 q0 20 20 20 ZM202 42 l-98 0 q-12 0 -12 -12 l0 -36 q0 -14 12 -12 l98 0 q14 -2 12 12 l0 36 q2 12 -12 12 Z" /><glyph glyph-name="" unicode="&#x4ff1;" d="M60 198 q-4 -30 -12 -54 l0 -174 q-6 -8 -12 0 l0 144 q-6 -16 -20 -34 q-12 -4 -10 8 q34 52 42 112 q8 8 12 -2 ZM108 198 l88 0 q24 0 22 -22 l0 -138 l26 0 q8 -6 0 -12 l-180 0 q-10 6 0 12 l22 0 l0 140 q0 20 22 20 ZM194 186 l-84 0 q-12 0 -12 -12 l0 -16 l108 0 l0 16 q2 12 -12 12 ZM206 146 l-108 0 l0 -28 l108 0 l0 28 ZM206 106 l-108 0 l0 -28 l108 0 l0 28 ZM206 66 l-108 0 l0 -28 l108 0 l0 28 ZM112 20 q12 6 10 -8 q-24 -26 -56 -46 q-12 -2 -6 10 q34 24 52 44 ZM188 22 q26 -18 54 -46 q2 -12 -10 -8 q-24 24 -52 44 q-6 10 8 10 Z" /><glyph glyph-name="" unicode="&#x5019;" d="M50 198 q6 8 12 0 q-4 -30 -18 -68 l0 -160 q-6 -8 -12 0 l0 136 q-8 -16 -16 -28 q-10 -4 -10 6 q36 60 44 114 ZM112 190 l80 0 q22 0 20 -18 l0 -30 l28 0 q8 -6 0 -12 l-148 0 q-8 6 0 12 l108 0 l0 28 q2 8 -10 8 l-78 0 q-8 6 0 12 ZM76 158 l0 -162 q-6 -8 -12 0 l0 162 q6 8 12 0 ZM120 122 q10 6 10 -4 q-4 -10 -8 -16 l106 0 q8 -6 0 -12 l-56 0 l0 -36 l64 0 q8 -6 0 -12 l-62 0 q28 -46 72 -66 q6 -10 -4 -12 q-44 18 -74 66 q-18 -44 -84 -66 q-10 4 -2 12 q66 22 76 66 l-62 0 q-8 6 0 12 l64 0 l0 36 l-44 0 q-8 -14 -22 -30 q-10 -2 -8 8 q18 20 34 54 Z" /><glyph glyph-name="" unicode="&#x505a;" d="M146 96 q18 40 22 98 q8 10 12 -2 q0 -12 -2 -26 l62 0 q8 -6 0 -12 l-12 0 q2 -50 -24 -112 q20 -38 46 -64 q2 -14 -10 -8 q-22 20 -44 60 q-20 -34 -52 -62 q-14 -2 -8 10 q32 28 52 64 q-14 34 -22 72 q-6 -16 -10 -24 q-10 -6 -10 6 ZM216 154 l-40 0 l-2 -10 q10 -58 22 -88 q22 54 20 98 ZM110 94 l-16 0 q-12 0 -12 -12 l0 -80 q0 -14 12 -12 l16 0 q16 -2 14 12 l0 80 q2 12 -14 12 ZM96 166 l0 26 q6 12 12 0 l0 -26 l32 0 q8 -6 0 -12 l-32 0 l0 -48 l8 0 q22 0 20 -22 l0 -86 q2 -22 -26 -20 l-18 0 q-22 -2 -22 20 l0 86 q0 22 22 22 l4 0 l0 48 l-28 0 q-8 6 0 12 l28 0 ZM60 196 q-4 -32 -12 -62 l0 -166 q-6 -8 -12 0 l0 138 q-8 -20 -22 -36 q-10 -2 -8 8 q34 48 42 120 q8 8 12 -2 Z" /><glyph glyph-name="" unicode="&#x5143;" d="M34 188 l186 0 q12 -6 0 -12 l-186 0 q-8 6 0 12 ZM14 120 l228 0 q8 -6 0 -12 l-80 0 l0 -112 q0 -18 14 -16 l34 0 q24 -2 20 56 q6 10 12 0 q4 -72 -30 -68 l-40 0 q-22 -2 -22 24 l0 116 l-52 0 q6 -100 -84 -140 q-10 2 -4 12 q82 38 76 128 l-72 0 q-10 6 0 12 Z" /><glyph glyph-name="" unicode="&#x514b;" d="M116 198 q8 8 12 0 l0 -16 l104 0 q8 -6 0 -12 l-104 0 l0 -32 l66 0 q24 0 22 -20 l0 -38 q2 -26 -22 -24 l-30 0 l0 -66 q0 -14 10 -12 l44 0 q16 -4 14 48 q6 8 12 0 q4 -64 -22 -60 l-48 0 q-22 -2 -22 22 l0 68 l-60 0 q4 -70 -76 -92 q-12 4 -4 12 q70 18 68 80 l-24 0 q-20 -2 -20 22 l0 40 q0 20 20 20 l60 0 l0 32 l-100 0 q-8 6 0 12 l100 0 l0 16 ZM192 126 l-134 0 q-10 0 -10 -10 l0 -34 q0 -16 14 -14 l130 0 q14 -2 12 12 l0 36 q2 10 -12 10 Z" /><glyph glyph-name="" unicode="&#x5165;" d="M94 184 q-6 12 6 12 q34 -12 48 -56 q38 -110 96 -162 q4 -12 -8 -10 q-64 58 -102 174 q-24 -94 -110 -172 q-12 -2 -8 10 q82 72 110 176 q-8 20 -32 28 Z" /><glyph glyph-name="" unicode="&#x516c;" d="M162 196 q28 -64 84 -114 q4 -12 -8 -8 q-58 46 -88 118 q2 12 12 4 ZM98 186 q-26 -66 -84 -112 q-10 0 -8 8 q60 52 80 108 q10 8 12 -4 ZM126 110 q-32 -62 -64 -110 q-8 -10 6 -8 q58 4 136 12 q-14 26 -38 66 q-2 12 10 6 q36 -56 56 -102 q0 -10 -10 -6 l-12 24 q-86 -8 -146 -12 q-28 -2 -18 18 q38 54 70 118 q10 6 10 -6 Z" /><glyph glyph-name="" unicode="&#x5173;" d="M184 196 q12 6 12 -6 q-10 -18 -20 -32 l48 0 q10 -6 0 -12 l-92 0 l0 -52 l100 0 q12 -6 0 -12 l-96 0 q36 -80 104 -102 q6 -12 -4 -12 q-72 24 -108 104 q-16 -72 -106 -104 q-12 2 -4 12 q86 30 100 102 l-98 0 q-10 6 0 12 l100 0 l0 52 l-90 0 q-10 4 0 12 l56 0 q-8 16 -18 32 q2 12 12 6 q14 -24 20 -38 l60 0 q12 18 24 38 Z" /><glyph glyph-name="" unicode="&#x51b2;" d="M150 198 q6 10 12 0 l0 -30 l52 0 q22 0 20 -20 l0 -72 q2 -22 -20 -20 l-52 0 l0 -88 q-6 -10 -12 0 l0 88 l-52 0 q-20 -2 -20 20 l0 72 q0 20 20 20 l52 0 l0 30 ZM34 188 q14 -30 20 -72 q-6 -12 -12 -2 q-6 42 -20 70 q4 12 12 4 ZM150 156 l-48 0 q-12 0 -12 -12 l0 -64 q0 -14 12 -12 l48 0 l0 88 ZM210 156 l-48 0 l0 -88 l48 0 q14 -2 12 12 l0 64 q2 12 -12 12 ZM54 84 q8 10 12 -2 q-14 -58 -42 -98 q-12 -4 -10 8 q28 42 40 92 Z" /><glyph glyph-name="" unicode="&#x5212;" d="M64 200 q6 8 12 0 l0 -56 l78 0 q8 -6 0 -12 l-78 0 q2 -36 14 -76 q18 30 26 54 q10 10 12 -4 q-8 -30 -32 -64 q20 -50 36 -64 q12 -10 22 40 q8 8 12 -2 q-10 -66 -40 -50 q-18 12 -40 66 q-32 -38 -70 -54 q-12 0 -4 12 q42 22 68 54 q-14 46 -16 88 l-48 0 q-8 6 0 12 l48 0 l0 56 ZM104 198 q20 -14 42 -34 q2 -10 -10 -8 q-24 20 -40 32 q-4 10 8 10 ZM236 198 l0 -212 q2 -28 -56 -14 q-6 8 4 12 q42 -12 40 6 l0 208 q6 10 12 0 ZM188 182 l0 -164 q-6 -10 -12 0 l0 164 q6 10 12 0 Z" /><glyph glyph-name="" unicode="&#x5219;" d="M42 188 l76 0 q22 -2 20 -20 l0 -128 q-6 -14 -12 0 l0 124 q2 12 -12 12 l-68 0 q-12 0 -12 -12 l0 -124 q-6 -10 -12 0 l0 128 q2 20 20 20 ZM234 196 l0 -200 q2 -30 -26 -28 q-10 -2 -38 8 q-8 10 4 12 q24 -10 34 -8 q16 -2 14 16 l0 200 q6 10 12 0 ZM182 176 l0 -152 q-6 -10 -12 0 l0 152 q6 10 12 0 ZM88 132 l0 -50 q4 -80 -70 -114 q-12 0 -4 12 q64 32 62 98 l0 54 q8 8 12 0 ZM104 24 q22 -20 44 -44 q6 -14 -8 -12 q-24 26 -44 46 q-2 12 8 10 Z" /><glyph glyph-name="" unicode="&#x521b;" d="M74 192 q8 8 16 0 q32 -28 68 -68 q2 -14 -10 -8 q-32 38 -60 62 q-4 6 -10 0 q-28 -40 -66 -66 q-12 0 -6 10 q38 26 68 70 ZM234 192 l0 -204 q0 -34 -52 -16 q-8 10 4 12 q36 -16 36 6 l0 202 q6 8 12 0 ZM186 180 l0 -156 q-6 -10 -12 0 l0 156 q6 8 12 0 ZM52 120 l60 0 q22 0 20 -20 l-2 -46 q-4 -32 -52 -12 q-8 10 4 12 q34 -16 36 2 l2 40 q2 12 -12 12 l-52 0 q-12 0 -12 -12 l0 -92 q2 -22 18 -20 l64 0 q20 -4 18 36 q6 10 12 0 q2 -50 -28 -48 l-72 0 q-24 2 -24 32 l0 96 q0 20 20 20 Z" /><glyph glyph-name="" unicode="&#x5229;" d="M134 200 q8 -4 0 -12 q-26 -2 -48 -4 l0 -46 l56 0 q8 -6 0 -12 l-54 0 q30 -40 52 -74 q0 -12 -10 -6 q-22 32 -44 64 l0 -142 q-6 -10 -12 0 l0 130 q-18 -42 -56 -74 q-10 -2 -8 8 q44 40 62 94 l-58 0 q-8 6 0 12 l60 0 l0 44 q-26 -2 -52 -4 q-10 6 0 12 q66 4 112 10 ZM170 180 l0 -154 q-6 -10 -12 0 l0 154 q6 8 12 0 ZM230 194 l0 -196 q2 -32 -24 -30 q-14 -2 -46 10 q-8 12 4 14 q60 -26 54 10 l0 192 q6 10 12 0 Z" /><glyph glyph-name="" unicode="&#x522b;" d="M226 192 q6 8 12 0 l0 -204 q2 -34 -56 -18 q-8 10 4 12 q42 -12 40 8 l0 202 ZM118 184 l-66 0 q-14 0 -14 -14 l0 -40 q0 -10 14 -8 l66 0 q16 -2 14 10 l0 40 q2 12 -14 12 ZM190 170 l0 -156 q-6 -8 -12 0 l0 156 q6 10 12 0 ZM46 196 l74 0 q26 0 24 -20 l0 -46 q2 -22 -24 -20 l-72 0 q-20 -2 -22 16 l0 48 q0 20 20 22 ZM80 66 q-4 -64 -60 -102 q-8 -2 -6 10 q52 40 54 92 l-48 0 q-8 6 0 12 l48 0 l0 22 q6 8 12 0 l0 -22 l46 0 q28 0 26 -20 l-2 -70 q-2 -38 -72 -18 q-6 10 4 12 q58 -16 56 10 l2 62 q2 12 -16 12 l-44 0 Z" /><glyph glyph-name="" unicode="&#x5230;" d="M226 196 q6 10 12 0 l0 -206 q2 -38 -58 -18 q-6 10 4 12 q44 -16 42 10 l0 202 ZM182 180 l0 -160 q-6 -12 -12 0 l0 160 q6 10 12 0 ZM18 192 l140 0 q10 -6 0 -12 l-80 0 q-12 -36 -34 -64 l82 4 q-10 22 -20 38 q0 12 10 8 q24 -40 32 -70 q0 -10 -12 -4 l-6 18 l-40 -4 l0 -50 l56 0 q8 -8 0 -12 l-56 0 l0 -56 l68 8 q10 -6 0 -12 q-84 -10 -144 -16 q-12 6 0 12 l64 6 l0 58 l-56 0 q-8 6 0 12 l56 0 l0 50 l-44 -2 q-14 0 -2 14 q22 28 34 62 l-48 0 q-10 6 0 12 Z" /><glyph glyph-name="" unicode="&#x524d;" d="M70 196 q0 12 10 6 q16 -22 22 -32 l62 0 q10 16 22 34 q10 4 10 -6 q-10 -16 -18 -28 l60 0 q10 -6 0 -12 l-220 0 q-8 6 0 12 l70 0 q-6 8 -18 26 ZM50 134 l60 0 q24 0 22 -22 l0 -132 q-2 -16 -22 -16 q-18 2 -34 8 q-8 10 4 12 q40 -14 40 0 l0 42 l-80 0 l0 -60 q-6 -8 -12 0 l0 148 q0 20 22 20 ZM228 130 l0 -148 q-2 -16 -22 -18 q-22 2 -38 10 q-8 8 4 12 q42 -20 44 0 l0 144 q6 12 12 0 ZM176 122 l0 -114 q-6 -10 -12 0 l0 114 q6 10 12 0 ZM108 122 l-56 0 q-12 0 -12 -10 l0 -26 l80 0 l0 26 q2 10 -12 10 ZM120 74 l-80 0 l0 -36 l80 0 l0 36 Z" /><glyph glyph-name="" unicode="&#x529b;" d="M126 198 l0 -36 l82 0 q28 0 28 -24 q0 -68 -4 -130 q-4 -60 -96 -30 q-10 10 4 12 q78 -26 80 20 q4 60 2 126 q2 14 -14 14 l-82 0 q-2 -128 -92 -186 q-12 0 -6 10 q84 58 86 176 l-92 0 q-10 6 0 12 l92 0 l0 36 q6 10 12 0 Z" /><glyph glyph-name="" unicode="&#x529e;" d="M112 200 l-2 -36 l60 0 q30 0 28 -24 q2 -98 -6 -142 q-10 -46 -88 -22 q-6 10 4 12 q64 -24 72 16 q8 38 6 132 q2 16 -20 16 l-58 0 q-12 -120 -74 -184 q-10 -2 -8 8 q58 64 70 176 l-62 0 q-8 6 0 12 l64 0 l2 36 q6 8 12 0 ZM54 110 q-12 -56 -38 -86 q-10 -4 -10 6 q28 38 36 82 q8 8 12 -2 ZM220 112 q20 -50 28 -86 q-2 -12 -12 -4 q-10 40 -28 86 q2 14 12 4 Z" /><glyph glyph-name="" unicode="&#x529f;" d="M170 198 l0 -34 l44 0 q26 0 24 -22 q2 -116 -8 -146 q-8 -24 -32 -28 q-24 0 -46 8 q-8 10 4 12 q52 -20 62 12 q10 34 8 140 q2 12 -14 12 l-42 0 q-2 -128 -94 -182 q-12 0 -6 10 q86 50 88 172 l-50 0 q-8 6 0 12 l50 0 l0 34 q6 10 12 0 ZM18 180 l84 0 q8 -6 0 -12 l-40 0 l0 -152 q26 12 40 20 q12 0 4 -12 q-44 -24 -86 -38 q-12 2 -4 12 q18 6 34 12 l0 158 l-32 0 q-8 6 0 12 Z" /><glyph glyph-name="" unicode="&#x52a0;" d="M66 198 l0 -36 l38 0 q24 0 22 -22 l0 -144 q-4 -42 -62 -24 q-8 10 4 12 q44 -16 46 14 l0 140 q2 12 -12 12 l-36 0 l0 -28 q2 -82 -48 -152 q-10 -4 -10 6 q48 70 46 146 l0 28 l-36 0 q-10 6 0 12 l36 0 l0 36 q6 10 12 0 ZM166 182 l46 0 q24 0 22 -22 l0 -168 q2 -24 -22 -22 l-42 0 q-24 -2 -24 20 l0 168 q0 24 20 24 ZM210 170 l-40 0 q-12 0 -12 -12 l0 -166 q0 -12 12 -10 l40 0 q14 -2 12 12 l0 162 q2 14 -12 14 Z" /><glyph glyph-name="" unicode="&#x52a8;" d="M168 196 q6 12 12 0 l0 -44 l42 0 q22 0 20 -20 q2 -120 -8 -146 q-10 -30 -56 -10 q-6 10 4 12 q36 -16 42 6 q8 30 6 134 q2 12 -12 12 l-38 0 q2 -116 -46 -174 q-12 -4 -10 8 q46 54 44 166 l-30 0 q-12 6 0 12 l30 0 l0 44 ZM34 170 l80 0 q10 -6 0 -12 l-80 0 q-10 6 0 12 ZM14 110 l112 0 q8 -6 0 -12 l-56 0 q-6 -52 -28 -100 q32 4 66 12 q-6 22 -18 50 q2 10 12 4 q16 -38 24 -82 q-4 -10 -12 -2 q-2 6 -4 18 q-46 -10 -82 -14 q-8 2 -2 12 q22 32 32 102 l-44 0 q-10 4 0 12 Z" /><glyph glyph-name="" unicode="&#x52aa;" d="M66 200 q6 6 10 -4 q-2 -8 -8 -20 l38 0 q22 0 20 -20 q-2 -28 -26 -56 q16 -8 24 -16 q4 -12 -8 -10 q-12 10 -26 16 q-34 -26 -70 -36 q-12 4 -4 12 q34 8 62 30 q-22 12 -44 22 q-4 6 0 12 q10 16 18 34 l-34 0 q-10 6 0 12 l38 0 q8 18 10 24 ZM138 192 l76 0 q20 0 20 -16 q-4 -32 -40 -68 q22 -22 46 -32 q4 -10 -6 -10 q-22 8 -50 34 q-26 -20 -46 -26 q-10 2 -6 10 q24 10 44 24 q-22 28 -32 72 l-6 0 q-8 6 0 12 ZM102 164 l-38 0 q-8 -18 -18 -38 q20 -10 42 -20 q22 24 26 46 q2 12 -12 12 ZM186 116 q24 24 34 52 q4 12 -10 12 l-54 0 q10 -42 30 -64 ZM222 26 q2 14 -16 14 l-76 0 q-20 -64 -104 -72 q-10 4 -2 12 q74 6 94 60 l-84 0 q-10 6 0 12 l86 0 l2 16 q4 6 12 0 l-2 -16 l78 0 q26 0 24 -24 l-2 -32 q-2 -28 -28 -30 q-38 -2 -68 8 q-8 10 4 12 q28 -10 58 -8 q22 0 22 20 l2 28 Z" /><glyph glyph-name="" unicode="&#x52b2;" d="M180 194 l0 -40 l38 0 q24 0 22 -22 l-6 -124 q-4 -44 -62 -30 q-10 8 2 12 q46 -14 48 20 l6 122 q2 10 -12 10 l-36 0 q4 -102 -56 -172 q-10 -4 -10 6 q56 64 54 166 l-28 0 q-8 6 0 12 l28 0 l0 40 q6 10 12 0 ZM32 182 l64 0 q22 0 20 -16 q-8 -20 -28 -40 q28 -14 58 -34 q6 -10 -6 -10 q-34 22 -60 36 q-26 -22 -54 -36 q-12 0 -4 10 q60 34 80 72 q2 6 -8 6 l-62 0 q-8 6 0 12 ZM28 74 l100 0 q8 -6 0 -12 l-44 0 l0 -62 q26 8 40 14 q12 -4 2 -12 q-48 -16 -106 -30 q-12 4 0 12 q30 6 52 14 l0 64 l-44 0 q-8 4 0 12 Z" /><glyph glyph-name="" unicode="&#x533a;" d="M52 192 l180 0 q12 -6 0 -12 l-178 0 q-12 0 -12 -14 l0 -166 q0 -18 14 -16 l180 0 q8 -6 0 -12 l-182 0 q-24 -2 -24 22 l0 172 q0 26 22 26 ZM186 166 q10 6 12 -4 q-16 -42 -44 -84 q36 -42 58 -76 q0 -12 -12 -6 q-24 36 -54 72 q-30 -40 -74 -74 q-12 -4 -10 8 q48 36 76 76 q-36 42 -70 76 q-4 14 8 10 q40 -40 70 -76 q24 38 40 78 Z" /><glyph glyph-name="" unicode="&#x5343;" d="M220 198 q12 -2 2 -12 q-34 -8 -88 -14 l0 -72 l108 0 q10 -6 0 -12 l-108 0 l0 -118 q-6 -10 -12 0 l0 118 l-106 0 q-10 6 0 12 l106 0 l0 72 q-44 -4 -88 -4 q-10 6 0 12 q110 0 186 18 Z" /><glyph glyph-name="" unicode="&#x534e;" d="M78 198 q12 6 12 -6 q-8 -14 -18 -32 l0 -84 q-6 -10 -12 0 l0 68 q-16 -22 -36 -40 q-10 -2 -8 8 q44 42 62 86 ZM140 198 q6 8 12 0 l0 -54 q36 18 60 36 q10 2 8 -8 q-20 -18 -68 -40 l0 -32 q0 -14 12 -12 l50 0 q16 -2 14 36 q6 8 12 0 q2 -50 -24 -48 l-54 0 q-22 -2 -22 18 l0 32 q-18 -8 -38 -14 q-10 2 -4 10 q20 8 42 16 l0 60 ZM132 84 l0 -32 l110 0 q10 -6 0 -12 l-110 0 l0 -74 q-6 -8 -12 0 l0 74 l-108 0 q-8 6 0 12 l108 0 l0 32 q6 8 12 0 Z" /><glyph glyph-name="" unicode="&#x53a6;" d="M50 192 l188 0 q8 -6 0 -12 l-184 0 q-12 0 -12 -12 l0 -92 q2 -76 -24 -110 q-10 -4 -10 6 q24 34 22 98 l0 102 q0 20 20 20 ZM54 162 l184 0 q8 -6 0 -12 l-98 0 l-4 -12 l66 0 q22 0 20 -16 l0 -50 q2 -20 -20 -18 l-92 0 l-8 -12 l90 0 q22 -2 14 -18 q-16 -20 -40 -34 q40 -14 76 -16 q8 -6 0 -12 q-46 2 -88 20 q-48 -18 -100 -20 q-8 6 0 12 q52 4 84 16 q-22 10 -52 32 q-18 -20 -44 -38 q-8 0 -6 10 q36 24 60 60 l-14 0 q-20 -2 -20 16 l0 52 q2 16 20 16 l42 0 l4 12 l-74 0 q-6 6 0 12 ZM198 126 l-112 0 q-12 0 -12 -8 l0 -4 l136 0 l0 4 q2 8 -12 8 ZM210 102 l-136 0 l0 -12 l136 0 l0 12 ZM210 78 l-136 0 l0 -4 q0 -10 12 -8 l112 0 q14 -2 12 8 l0 4 ZM186 30 l-92 0 q30 -22 58 -34 q26 14 36 26 q12 8 -2 8 Z" /><glyph glyph-name="" unicode="&#x53c2;" d="M106 206 q10 2 10 -8 q-26 -30 -50 -44 q60 0 118 4 q-12 12 -26 24 q0 14 12 8 q24 -22 42 -48 q2 -12 -10 -8 l-12 14 q-28 -2 -62 -4 q-4 -14 -8 -24 l114 0 q10 -6 0 -12 l-80 0 q34 -36 92 -48 q8 -8 -2 -12 q-64 8 -106 60 l-22 0 q-30 -50 -106 -60 q-10 4 -2 12 q64 6 94 48 l-84 0 q-8 6 0 12 l88 0 q6 12 8 24 q-32 -2 -68 -2 q-16 4 -4 12 q34 16 64 52 ZM138 84 q12 2 8 -10 q-26 -34 -86 -44 q-8 6 0 12 q50 8 78 42 ZM170 52 q12 2 8 -10 q-44 -40 -122 -46 q-8 6 0 12 q74 8 114 44 ZM210 36 q8 2 10 -8 q-52 -64 -176 -62 q-8 6 0 12 q120 -2 166 58 Z" /><glyph glyph-name="" unicode="&#x53c8;" d="M26 184 l176 0 q20 0 14 -24 q-10 -50 -80 -122 q44 -46 108 -58 q8 -8 -2 -12 q-60 8 -116 60 q-52 -42 -106 -60 q-12 2 -4 12 q54 18 100 58 q-44 60 -70 134 l-20 0 q-8 6 0 12 ZM126 48 q58 54 78 114 q2 10 -8 10 l-136 0 q22 -66 66 -124 Z" /><glyph glyph-name="" unicode="&#x53ca;" d="M26 196 l144 0 q30 0 24 -22 l-10 -40 q-4 -12 8 -10 l14 0 q26 0 20 -22 q-14 -40 -54 -78 q42 -32 72 -44 q6 -10 -6 -12 q-30 12 -76 48 q-48 -34 -100 -46 q-10 4 -2 12 q54 14 92 42 q-36 34 -66 98 q-4 -78 -68 -148 q-10 -2 -8 8 q66 78 64 154 l0 48 l-48 0 q-8 6 0 12 ZM170 184 l-84 0 l0 -32 q34 -82 76 -120 q34 30 52 72 q2 8 -8 8 l-16 0 q-26 -2 -20 20 l10 40 q4 12 -10 12 Z" /><glyph glyph-name="" unicode="&#x53cb;" d="M94 196 l-2 -32 l144 0 q10 -6 0 -12 l-146 0 q-2 -18 -6 -36 l110 0 q20 0 18 -20 q-6 -30 -56 -78 q40 -34 88 -42 q8 -10 -4 -12 q-48 6 -94 44 q-44 -36 -104 -44 q-12 2 -2 12 q58 10 96 42 q-32 38 -56 78 q-20 -64 -60 -118 q-14 -6 -10 8 q60 86 68 166 l-62 0 q-8 6 0 12 l64 0 l2 32 q6 8 12 0 ZM188 104 l-100 0 q32 -48 58 -76 q34 28 52 64 q4 12 -10 12 Z" /><glyph glyph-name="" unicode="&#x53d1;" d="M112 198 q6 10 12 0 q-2 -24 -8 -54 l120 0 q10 -6 0 -12 l-122 0 q-6 -22 -10 -32 l94 0 q26 0 18 -20 q-14 -36 -46 -64 q36 -30 72 -40 q8 -8 -2 -12 q-36 8 -80 44 q-32 -26 -86 -44 q-10 2 -4 12 q50 16 80 40 q-26 28 -44 72 l-6 0 q-28 -66 -80 -110 q-10 -2 -8 8 q66 60 90 146 l-48 0 q-26 -2 -20 20 l12 40 q8 8 12 -2 l-10 -36 q-4 -12 6 -10 l50 0 q6 30 8 54 ZM172 194 q30 -16 48 -30 q4 -12 -8 -10 q-18 14 -48 30 q-6 12 8 10 ZM160 24 q22 18 42 54 q6 10 -12 10 l-72 0 q18 -36 42 -64 Z" /><glyph glyph-name="" unicode="&#x53d7;" d="M212 200 q8 -6 0 -12 q-100 -10 -180 -12 q-8 6 0 12 q78 2 180 12 ZM192 172 q8 6 12 -4 q-8 -24 -18 -40 l36 0 q30 -2 6 -64 q-10 -6 -12 6 q20 46 2 46 l-178 0 q-12 0 -12 -12 l0 -36 q-6 -8 -12 0 l0 40 q0 20 20 20 l136 0 q14 22 20 44 ZM48 92 l136 0 q20 -2 16 -18 q-14 -38 -56 -66 q36 -20 92 -28 q8 -8 -2 -14 q-44 6 -102 32 q-54 -28 -112 -30 q-10 2 -4 12 q60 4 102 26 q-34 24 -60 74 l-10 0 q-8 6 0 12 ZM130 14 q42 26 56 58 q2 8 -8 8 l-106 0 q22 -42 58 -66 ZM44 164 q0 10 10 8 q12 -14 22 -34 q-2 -10 -12 -4 q-8 16 -20 30 ZM108 168 q2 10 12 6 q10 -18 16 -36 q-4 -10 -12 -4 q-8 20 -16 34 Z" /><glyph glyph-name="" unicode="&#x53d8;" d="M32 74 l162 0 q34 0 24 -18 q-32 -32 -76 -52 q48 -22 98 -28 q8 -8 -2 -12 q-58 6 -108 32 q-48 -22 -108 -30 q-8 2 -2 12 q46 6 98 26 q-32 22 -62 58 l-24 0 q-8 6 0 12 ZM152 170 l-50 0 l0 -76 q-6 -10 -12 0 l0 76 l-72 0 q-8 4 0 12 l102 0 q-4 10 -10 18 q0 10 10 8 q10 -14 14 -26 l102 0 q8 -6 0 -12 l-72 0 l0 -76 q-6 -10 -12 0 l0 76 ZM66 156 q10 4 10 -6 q-24 -34 -50 -50 q-8 0 -6 10 q22 14 46 46 ZM186 154 q26 -20 46 -44 q2 -12 -10 -8 q-18 22 -46 44 q-2 12 10 8 ZM194 62 l-122 0 q24 -28 58 -50 q44 20 68 42 q10 8 -4 8 Z" /><glyph glyph-name="" unicode="&#x53e3;" d="M46 188 l162 0 q22 0 20 -22 l0 -164 q2 -28 -22 -26 l-162 0 q-20 -2 -20 24 l0 166 q0 22 22 22 ZM202 176 l-154 0 q-12 0 -12 -10 l0 -164 q0 -16 10 -14 l160 0 q12 -2 10 14 l0 162 q2 12 -14 12 Z" /><glyph glyph-name="" unicode="&#x53ea;" d="M56 192 l136 0 q22 0 20 -20 l0 -86 q2 -24 -24 -22 l-132 0 q-20 -2 -20 22 l0 86 q0 20 20 20 ZM188 180 l-128 0 q-12 0 -12 -12 l0 -80 q0 -14 12 -12 l126 0 q16 -2 14 12 l0 80 q2 12 -12 12 ZM84 48 q10 2 10 -8 q-28 -44 -68 -76 q-14 -2 -8 10 q40 32 66 74 ZM170 48 q36 -40 64 -74 q0 -14 -12 -8 q-30 36 -64 74 q0 12 12 8 Z" /><glyph glyph-name="" unicode="&#x53ef;" d="M20 188 l222 0 q10 -6 0 -12 l-26 0 l0 -184 q0 -30 -48 -28 q-24 2 -54 12 q-8 10 6 12 q84 -28 84 8 l0 180 l-184 0 q-10 6 0 12 ZM56 144 l92 0 q22 0 20 -22 l0 -74 q2 -22 -22 -20 l-90 0 q-20 -2 -20 20 l0 76 q0 20 20 20 ZM144 132 l-84 0 q-12 0 -12 -10 l0 -70 q0 -14 12 -12 l86 0 q12 -2 10 12 l0 66 q2 14 -12 14 Z" /><glyph glyph-name="" unicode="&#x53f2;" d="M138 198 l0 -30 l72 0 q22 0 20 -20 l0 -60 q2 -22 -20 -20 l-72 0 q-6 -50 -24 -68 q60 -24 128 -20 q8 -6 0 -12 q-78 -2 -136 22 q-32 -22 -90 -24 q-10 4 -2 12 q44 0 80 18 q-20 12 -58 52 q0 10 10 8 q30 -34 58 -50 q18 20 22 62 l-76 0 q-20 -2 -20 20 l0 60 q0 20 20 20 l76 0 l0 30 q6 10 12 0 ZM126 156 l-72 0 q-12 0 -12 -12 l0 -52 q2 -14 12 -12 l72 0 l0 76 ZM206 156 l-68 0 l0 -76 l68 0 q14 -2 12 12 l0 52 q2 12 -12 12 Z" /><glyph glyph-name="" unicode="&#x53f7;" d="M68 196 l126 0 q24 0 22 -22 l0 -30 q2 -22 -22 -20 l-126 0 q-20 -2 -20 20 l0 32 q0 20 20 20 ZM204 172 q2 12 -12 12 l-120 0 q-12 0 -12 -10 l0 -26 q0 -14 12 -12 l120 0 q14 -2 12 10 l0 26 ZM10 104 l232 0 q10 -6 0 -12 l-166 0 l-2 -22 q0 -10 10 -8 l110 0 q24 0 24 -24 q-2 -60 -34 -70 q-34 -8 -86 10 q-6 8 4 12 q50 -18 80 -10 q22 10 24 58 q0 12 -12 12 l-110 0 q-24 -2 -22 18 l2 24 l-54 0 q-8 6 0 12 Z" /><glyph glyph-name="" unicode="&#x53f8;" d="M34 194 l174 0 q24 0 22 -24 l0 -180 q4 -28 -42 -24 q-20 2 -44 12 q-4 10 6 12 q72 -24 68 2 l0 172 q2 18 -14 18 l-170 0 q-8 6 0 12 ZM14 150 l184 0 q8 -6 0 -12 l-184 0 q-8 4 0 12 ZM50 106 l112 0 q22 0 20 -20 l0 -56 q2 -22 -20 -20 l-112 0 q-20 -2 -20 22 l0 54 q0 20 20 20 ZM158 94 l-104 0 q-12 0 -12 -12 l0 -48 q0 -14 12 -12 l104 0 q14 -2 12 12 l0 48 q2 12 -12 12 Z" /><glyph glyph-name="" unicode="&#x540e;" d="M216 200 q10 -4 2 -12 q-56 -10 -164 -14 q-6 0 -6 -8 l0 -32 l194 0 q8 -6 0 -12 l-194 0 l0 -38 q2 -64 -30 -112 q-10 -4 -10 6 q30 46 28 106 l0 86 q0 16 18 16 q98 2 162 14 ZM100 94 l100 0 q26 0 24 -22 l0 -76 q2 -24 -22 -22 l-106 0 q-20 -2 -20 20 l0 78 q0 22 24 22 ZM212 70 q2 12 -14 12 l-96 0 q-14 0 -14 -12 l0 -72 q0 -14 12 -12 l100 0 q14 -2 12 12 l0 72 Z" /><glyph glyph-name="" unicode="&#x542c;" d="M226 194 q8 -4 2 -12 q-58 -12 -98 -12 q-8 0 -8 -14 l0 -30 l120 0 q8 -6 0 -12 l-44 0 l0 -144 q-6 -8 -12 0 l0 144 l-64 0 l0 -36 q4 -72 -34 -104 q-10 -4 -10 8 q36 28 32 94 l0 80 q0 26 16 26 q40 0 100 12 ZM38 178 l24 0 q22 0 20 -22 l0 -140 q2 -24 -20 -22 l-26 0 q-18 -2 -18 22 l0 138 q0 24 20 24 ZM58 166 l-16 0 q-12 0 -12 -14 l0 -134 q0 -14 12 -12 l16 0 q14 -2 12 12 l0 134 q2 14 -12 14 Z" /><glyph glyph-name="" unicode="&#x548c;" d="M116 198 q10 -4 2 -12 q-20 -4 -40 -8 l0 -50 l44 0 q10 -6 0 -12 l-44 0 l0 -8 q28 -34 44 -54 q2 -10 -8 -8 q-18 22 -36 42 l0 -120 q-6 -8 -12 0 l0 124 q-16 -36 -48 -66 q-10 -6 -10 6 q40 42 54 84 l-48 0 q-10 6 0 12 l52 0 l0 48 q-12 -2 -38 -4 q-10 4 -2 12 q48 4 90 14 ZM160 182 l52 0 q24 0 22 -22 l0 -154 q2 -24 -22 -22 l-52 0 q-22 -2 -22 22 l0 154 q0 22 22 22 ZM210 170 l-48 0 q-12 0 -12 -10 l0 -152 q0 -14 12 -12 l48 0 q14 -2 12 12 l0 150 q2 12 -12 12 Z" /><glyph glyph-name="" unicode="&#x54a8;" d="M110 198 q10 4 10 -6 q-4 -8 -8 -16 l102 0 q32 0 20 -28 q-8 -16 -24 -32 q-10 -2 -10 8 q38 40 16 40 l-64 0 l-2 -8 q38 -84 96 -94 q6 -10 -4 -12 q-58 10 -96 86 q-16 -62 -86 -84 q-10 2 -2 12 q72 22 82 100 l-34 0 q-10 -16 -28 -32 q-8 -4 -8 8 q24 22 40 58 ZM36 194 q16 -20 30 -42 q2 -12 -10 -8 q-14 22 -30 42 q-2 12 10 8 ZM190 36 l-124 0 q-12 0 -12 -12 l0 -32 q0 -14 12 -12 l124 0 q14 -2 12 12 l0 32 q2 12 -12 12 ZM16 84 q32 14 66 42 q12 0 8 -10 q-34 -26 -70 -44 q-12 2 -4 12 ZM42 24 q0 22 18 24 l132 0 q24 0 22 -20 l0 -40 q2 -22 -22 -20 l-132 0 q-18 -2 -18 18 l0 38 Z" /><glyph glyph-name="" unicode="&#x54c1;" d="M62 196 l124 0 q26 0 24 -22 l0 -48 q2 -24 -22 -22 l-126 0 q-20 -2 -20 22 l0 50 q0 18 20 20 ZM186 184 l-120 0 q-12 0 -12 -12 l0 -44 q0 -14 12 -12 l120 0 q14 -2 12 12 l0 44 q2 12 -12 12 ZM40 84 l56 0 q24 0 22 -22 l0 -74 q2 -22 -20 -20 l-58 0 q-22 -2 -22 22 l0 74 q0 20 22 20 ZM158 84 l60 0 q22 0 20 -20 l0 -74 q2 -24 -20 -22 l-60 0 q-20 -2 -20 20 l0 74 q0 22 20 22 ZM94 72 l-52 0 q-12 0 -12 -12 l0 -68 q0 -14 12 -12 l52 0 q14 -2 12 10 l0 70 q2 12 -12 12 ZM214 72 l-52 0 q-12 0 -12 -12 l0 -68 q0 -14 12 -12 l54 0 q12 -2 10 12 l0 68 q2 12 -12 12 Z" /><glyph glyph-name="" unicode="&#x552e;" d="M124 204 q10 -12 18 -30 l88 0 q8 -6 0 -12 l-92 0 l0 -24 l82 0 q8 -6 0 -12 l-82 0 l0 -22 l82 0 q8 -6 0 -12 l-82 0 l0 -26 l96 0 q8 -6 0 -12 l-176 0 l0 -10 q-6 -6 -12 0 l0 92 q-8 -10 -20 -22 q-10 0 -8 10 q30 28 52 74 q10 8 12 -4 l-12 -20 l58 0 q-6 12 -14 20 q-2 14 10 10 ZM126 162 l-62 0 l-6 -10 l0 -14 l68 0 l0 24 ZM126 126 l-68 0 l0 -22 l68 0 l0 22 ZM126 92 l-68 0 l0 -26 l68 0 l0 26 ZM58 36 l148 0 q22 0 20 -20 l0 -28 q2 -22 -20 -20 l-148 0 q-20 -2 -20 20 l0 28 q0 20 20 20 ZM202 24 l-140 0 q-12 0 -12 -12 l0 -20 q0 -14 12 -12 l140 0 q14 -2 12 12 l0 20 q2 12 -12 12 Z" /><glyph glyph-name="" unicode="&#x5546;" d="M122 196 q10 -12 22 -28 l98 0 q10 -6 0 -12 l-52 0 q-12 -22 -22 -36 l46 0 q22 0 20 -20 l0 -116 q2 -24 -22 -22 q-6 -2 -26 4 q-8 8 2 14 q38 -12 34 6 l0 110 q0 12 -12 12 l-164 0 q-12 0 -12 -12 l0 -126 q-6 -10 -12 0 l0 130 q0 20 20 20 l48 0 q-8 14 -24 36 l-52 0 q-8 6 0 12 l114 0 q-8 12 -16 20 q-2 12 10 8 ZM80 156 q12 -16 24 -36 l50 0 q12 16 22 36 l-96 0 ZM86 60 l84 0 q22 0 20 -20 l0 -32 q2 -24 -20 -20 l-84 0 q-18 -2 -20 20 l0 32 q0 20 20 20 ZM166 48 l-76 0 q-12 0 -12 -12 l0 -24 q0 -14 12 -12 l76 0 q14 -2 12 12 l0 24 q2 12 -12 12 ZM98 100 q12 2 8 -10 q-24 -20 -60 -32 q-10 2 -2 12 q32 10 54 30 ZM152 90 q-6 10 6 12 q32 -20 54 -36 q2 -10 -8 -10 q-34 24 -52 34 Z" /><glyph glyph-name="" unicode="&#x5584;" d="M68 196 q0 12 10 8 q10 -16 18 -32 l68 0 q14 20 18 32 q10 6 12 -4 q-4 -12 -16 -28 l52 0 q8 -6 0 -12 l-100 0 l0 -20 l86 0 q8 -6 0 -12 l-86 0 l0 -20 l104 0 q8 -6 0 -12 l-36 0 q-2 -12 -10 -32 l56 0 q8 -6 0 -12 l-226 0 q-10 6 0 12 l50 0 q-4 14 -12 32 l-34 0 q-8 6 0 12 l96 0 l0 20 l-78 0 q-8 6 0 12 l78 0 l0 20 l-92 0 q-8 6 0 12 l56 0 q-6 12 -14 24 ZM118 96 l-50 0 q6 -14 12 -32 l38 0 l0 32 ZM186 96 l-56 0 l0 -32 l44 0 q8 18 12 32 ZM58 40 l140 0 q22 0 20 -20 l0 -32 q2 -22 -20 -20 l-140 0 q-20 -2 -20 20 l0 32 q0 20 20 20 ZM194 28 l-132 0 q-12 0 -12 -12 l0 -24 q0 -14 12 -12 l132 0 q14 -2 12 12 l0 24 q2 12 -12 12 Z" /><glyph glyph-name="" unicode="&#x56e2;" d="M44 192 l170 0 q22 0 20 -20 l0 -184 q2 -22 -20 -20 l-170 0 q-20 -2 -20 20 l0 184 q0 20 20 20 ZM210 180 l-162 0 q-12 0 -12 -12 l0 -174 q0 -16 12 -14 l162 0 q14 -2 12 12 l0 176 q2 12 -12 12 ZM152 168 l0 -36 l56 0 q8 -6 0 -12 l-56 0 l0 -110 q4 -34 -56 -14 q-4 10 6 12 q42 -16 38 2 l0 88 q-38 -60 -80 -84 q-12 -2 -8 10 q48 30 86 96 l-86 0 q-8 6 0 12 l88 0 l0 36 q6 10 12 0 Z" /><glyph glyph-name="" unicode="&#x5728;" d="M102 198 q10 10 12 -2 l-6 -20 l126 0 q12 -6 0 -12 l-128 0 q-18 -48 -48 -80 l0 -116 q-6 -10 -12 0 l0 106 q-14 -14 -32 -22 q-12 -2 -6 10 q58 34 86 102 l-76 0 q-10 6 0 12 l78 0 l6 22 ZM146 136 q6 10 12 0 l0 -52 l68 0 q10 -6 0 -12 l-68 0 l0 -88 l84 0 q8 -6 0 -12 l-172 0 q-10 6 0 12 l76 0 l0 88 l-64 0 q-10 4 0 12 l64 0 l0 52 Z" /><glyph glyph-name="" unicode="&#x5730;" d="M166 202 l0 -58 l42 10 q24 4 24 -22 q0 -34 -2 -70 q-2 -24 -48 -10 q-6 10 4 12 q32 -10 32 2 q2 30 2 64 q0 12 -12 12 l-42 -10 l0 -108 q-6 -10 -12 0 l0 104 l-40 -10 l0 -118 q2 -22 20 -20 l60 0 q38 -4 36 56 q6 10 12 0 q2 -70 -44 -68 l-66 0 q-30 -2 -30 32 l0 116 l-26 -6 q-12 4 -2 12 l28 6 l0 48 q6 12 12 0 l0 -46 l40 10 l0 62 q6 8 12 0 ZM42 196 q6 8 12 0 l0 -56 l24 0 q10 -6 0 -12 l-24 0 l0 -116 q18 12 30 24 q12 2 8 -10 q-36 -32 -72 -46 q-12 0 -6 12 q10 4 28 14 l0 122 l-28 0 q-10 6 0 12 l28 0 l0 56 Z" /><glyph glyph-name="" unicode="&#x573a;" d="M58 186 l0 -64 l36 0 q8 -6 0 -12 l-36 0 l0 -84 q18 12 32 24 q10 0 6 -10 q-32 -30 -80 -46 q-12 2 -4 10 q16 6 34 16 l0 90 l-30 0 q-8 6 0 12 l30 0 l0 64 q6 10 12 0 ZM112 188 l84 0 q34 0 22 -16 q-50 -44 -88 -60 l88 0 q22 0 20 -20 q2 -66 -8 -104 q-12 -38 -68 -16 q-6 8 4 12 q44 -18 52 8 q10 38 8 96 q2 12 -12 12 l-18 0 q-10 -76 -74 -128 q-10 -2 -8 8 q60 48 70 120 l-32 0 q-16 -70 -74 -116 q-10 -2 -8 8 q52 40 70 108 l-28 0 q-16 2 -2 14 q50 24 90 56 q4 6 -12 6 l-76 0 q-12 6 0 12 Z" /><glyph glyph-name="" unicode="&#x575a;" d="M92 196 l0 -128 q-6 -10 -12 0 l0 128 q6 8 12 0 ZM44 188 l0 -112 q-6 -8 -12 0 l0 112 q6 8 12 0 ZM118 192 l80 0 q30 0 18 -26 q-16 -26 -40 -48 q28 -28 56 -40 q6 -10 -6 -10 q-30 12 -60 42 q-24 -20 -56 -38 q-12 0 -6 10 q30 18 54 38 q-18 24 -28 60 l-12 0 q-10 6 0 12 ZM124 62 q6 8 12 0 l0 -18 l82 0 q10 -6 0 -12 l-82 0 l0 -52 l102 0 q10 -6 0 -12 l-222 0 q-8 6 0 12 l108 0 l0 52 l-86 0 q-8 6 0 12 l86 0 l0 18 ZM144 180 q8 -30 24 -52 q22 20 34 38 q10 14 -6 14 l-52 0 Z" /><glyph glyph-name="" unicode="&#x578b;" d="M220 196 q6 10 12 0 l0 -130 q2 -34 -60 -14 q-4 10 6 12 q44 -14 42 2 l0 130 ZM184 188 l0 -108 q-6 -8 -12 0 l0 108 q6 8 12 0 ZM24 192 l124 0 q8 -6 0 -12 l-28 0 l0 -44 l32 0 q8 -6 0 -12 l-32 0 l0 -68 q-6 -8 -12 0 l0 68 l-44 0 q0 -50 -34 -74 q-12 -2 -8 10 q28 20 30 64 l-32 0 q-8 6 0 12 l32 0 l0 44 l-28 0 q-8 6 0 12 ZM108 180 l-44 0 l0 -44 l44 0 l0 44 ZM134 48 l0 -22 l84 0 q8 -6 0 -12 l-84 0 l0 -36 l106 0 q8 -6 0 -12 l-222 0 q-8 6 0 12 l104 0 l0 36 l-84 0 q-8 6 0 12 l84 0 l0 22 q6 8 12 0 Z" /><glyph glyph-name="" unicode="&#x58f0;" d="M142 200 l0 -24 l96 0 q8 -6 0 -12 l-96 0 l0 -28 l80 0 q8 -6 0 -12 l-172 0 q-8 6 0 12 l80 0 l0 28 l-100 0 q-8 6 0 12 l100 0 l0 24 q6 8 12 0 ZM66 104 l140 0 q22 0 20 -20 l0 -22 q2 -24 -24 -22 l-144 0 q2 -48 -28 -78 q-12 -4 -10 8 q26 26 26 70 l0 44 q0 20 20 20 ZM134 92 l-64 0 q-12 0 -12 -12 l0 -28 l76 0 l0 40 ZM202 92 l-56 0 l0 -40 l56 0 q14 -2 12 12 l0 16 q2 12 -12 12 Z" /><glyph glyph-name="" unicode="&#x5907;" d="M78 200 q12 6 10 -6 l-6 -10 l100 0 q34 0 24 -22 q-24 -32 -62 -50 q44 -20 100 -28 q8 -8 -2 -12 q-58 8 -110 32 q-54 -24 -116 -32 q-10 4 -2 12 q58 8 106 28 q-30 20 -54 50 q-18 -18 -40 -30 q-14 0 -6 12 q34 16 58 56 ZM180 172 l-106 0 q30 -36 58 -52 q36 16 58 42 q6 10 -10 10 ZM190 -32 l-126 0 q-24 -2 -26 24 l0 56 q8 24 36 24 l114 0 q32 0 30 -24 l0 -56 q2 -26 -28 -24 ZM122 60 l-54 0 q-18 0 -18 -18 l0 -16 l72 0 l0 34 ZM186 60 l-52 0 l0 -34 l72 0 l0 16 q2 18 -20 18 ZM122 14 l-72 0 l0 -18 q0 -18 18 -16 l54 0 l0 34 ZM206 14 l-72 0 l0 -34 l52 0 q22 -2 20 16 l0 18 Z" /><glyph glyph-name="" unicode="&#x591a;" d="M108 192 l88 0 q30 0 20 -20 q-66 -100 -192 -100 q-10 6 0 12 q54 0 102 22 q-30 22 -64 42 q-10 -8 -28 -16 q-12 -2 -6 10 q44 22 74 62 q12 2 10 -8 l-4 -4 ZM192 180 l-92 0 q-10 -12 -26 -24 q34 -22 64 -42 q32 16 62 56 q6 10 -8 10 ZM216 76 l-76 0 q-12 -12 -28 -22 q36 -20 68 -48 q42 26 48 58 q4 12 -12 12 ZM140 96 q12 2 10 -8 l70 0 q28 0 22 -20 q-26 -110 -226 -100 q-12 6 0 12 q98 -4 152 20 q-30 24 -66 46 q-22 -12 -56 -18 q-12 4 -2 12 q60 12 96 56 Z" /><glyph glyph-name="" unicode="&#x591f;" d="M46 196 l-2 -14 l58 0 q24 0 22 -22 l0 -144 q2 -36 -14 -46 q-32 -12 -70 4 q-8 10 4 12 q74 -26 68 28 l0 144 q2 12 -12 12 l-58 0 q-6 -22 -18 -44 q-10 -8 -12 4 q20 38 22 68 q8 8 12 -2 ZM178 190 l40 0 q20 0 22 -14 q-10 -84 -106 -96 q-10 4 -2 12 q34 2 66 24 q-16 14 -36 30 q0 12 10 8 q18 -14 34 -28 q16 18 20 44 q2 8 -10 8 l-44 0 q-12 -22 -32 -42 q-10 -2 -8 8 q24 26 36 56 q8 8 12 -2 l-2 -8 ZM46 140 l24 0 q24 0 22 -22 l0 -88 q2 -22 -20 -20 l-24 0 q-20 -2 -20 20 l0 90 q0 18 18 20 ZM68 128 l-16 0 q-12 0 -12 -12 l0 -82 q0 -14 12 -12 l16 0 q14 -2 12 12 l0 82 q2 12 -12 12 ZM188 82 l34 0 q24 0 20 -26 q-8 -90 -118 -88 q-10 6 0 12 q52 -2 80 20 q-18 16 -38 32 q-2 10 8 8 q24 -18 38 -30 q16 18 18 50 q2 10 -8 10 l-40 0 q-22 -32 -44 -48 q-10 0 -6 10 q28 22 44 54 q10 8 12 -4 Z" /><glyph glyph-name="" unicode="&#x5927;" d="M130 196 l0 -52 l112 0 q10 -6 0 -12 l-112 0 q36 -124 112 -154 q8 -8 -4 -12 q-76 32 -112 138 q-20 -100 -108 -138 q-12 2 -4 12 q92 40 104 154 l-100 0 q-10 6 0 12 l100 0 l0 52 q6 10 12 0 Z" /><glyph glyph-name="" unicode="&#x5929;" d="M38 188 l184 0 q8 -6 0 -12 l-88 0 l0 -64 l104 0 q8 -6 0 -12 l-100 0 q36 -88 104 -120 q8 -10 -6 -12 q-74 40 -104 114 q-16 -88 -106 -114 q-14 0 -6 12 q90 26 102 120 l-104 0 q-8 4 0 12 l104 0 l0 64 l-84 0 q-8 4 0 12 Z" /><glyph glyph-name="" unicode="&#x5931;" d="M122 196 q6 10 12 0 l0 -44 l92 0 q8 -6 0 -12 l-92 0 l0 -60 l104 0 q8 -6 0 -12 l-104 0 q46 -80 108 -92 q8 -10 -4 -12 q-68 18 -108 88 q-24 -70 -112 -88 q-12 4 -2 12 q90 22 106 92 l-100 0 q-8 6 0 12 l100 0 l0 60 l-68 0 q-12 -28 -30 -46 q-12 -2 -8 10 q34 34 36 88 q6 8 12 0 q0 -22 -6 -40 l64 0 l0 44 Z" /><glyph glyph-name="" unicode="&#x597d;" d="M60 194 l-4 -30 l26 0 q26 0 24 -20 q-8 -72 -32 -118 q16 -12 34 -32 q4 -12 -8 -10 q-16 18 -34 32 q-18 -26 -46 -48 q-12 -2 -8 10 q28 22 44 46 q-18 16 -36 32 q-8 6 4 30 q12 36 18 66 l-30 0 q-8 4 0 12 l32 0 l4 32 q8 8 12 -2 ZM112 184 l92 0 q30 0 20 -18 q-18 -22 -46 -44 q-4 -6 2 -12 q10 -16 14 -26 l50 0 q6 -6 0 -12 l-46 0 q24 -92 -32 -104 q-22 -2 -50 12 q-4 10 6 10 q26 -12 44 -10 q42 14 18 92 l-76 0 q-10 6 0 12 l72 0 q-6 12 -16 26 q-8 10 4 20 q24 20 40 36 q6 6 -6 6 l-90 0 q-8 4 0 12 ZM80 152 l-26 0 q-6 -36 -20 -76 q-6 -12 0 -16 q16 -14 30 -26 q20 36 30 108 q2 10 -14 10 Z" /><glyph glyph-name="" unicode="&#x5982;" d="M68 198 l-4 -36 l48 0 q20 0 18 -18 q2 -66 -32 -120 q20 -18 36 -30 q4 -12 -8 -10 q-16 14 -36 30 q-34 -34 -72 -50 q-10 2 -4 12 q42 20 66 46 q-36 32 -48 42 q-8 6 -2 18 q16 40 20 68 l-34 0 q-8 6 0 12 l36 0 l4 36 q6 8 12 0 ZM166 182 l52 0 q20 0 20 -20 l0 -168 q2 -20 -20 -20 l-52 0 q-20 -4 -20 20 l0 168 q0 20 20 20 ZM214 170 l-44 0 q-12 0 -12 -12 l0 -160 q0 -14 12 -12 l44 0 q14 -2 12 12 l0 160 q2 12 -12 12 ZM108 150 l-46 0 q-4 -26 -18 -68 q-4 -8 0 -12 q12 -10 44 -38 q32 50 30 108 q0 10 -10 10 Z" /><glyph glyph-name="" unicode="&#x59cb;" d="M56 198 l-4 -36 l26 0 q22 0 20 -24 q4 -68 -26 -116 q20 -22 30 -40 q0 -12 -10 -6 q-12 18 -28 36 q-20 -26 -48 -46 q-12 -2 -6 10 q28 24 44 44 q-16 18 -32 40 q-4 8 0 16 q10 28 18 74 l-24 0 q-8 6 0 12 l24 0 l4 36 q6 8 12 0 ZM162 196 q10 4 10 -6 q-22 -48 -48 -78 q-6 -8 6 -8 l94 10 q-14 30 -26 48 q2 10 10 6 q28 -42 44 -86 q-2 -12 -10 -6 q-6 12 -12 26 l-108 -10 q-20 -2 -12 20 q30 38 52 84 ZM74 150 l-22 0 q-8 -44 -18 -78 q-2 -4 0 -8 q16 -22 28 -34 q28 42 24 106 q0 14 -12 14 ZM140 70 l72 0 q22 -2 20 -20 l0 -64 q2 -22 -20 -20 l-72 0 q-18 -2 -20 20 l0 64 q2 20 20 20 ZM208 58 l-64 0 q-12 0 -12 -12 l0 -56 q0 -14 12 -12 l64 0 q14 -2 12 12 l0 56 q2 12 -12 12 Z" /><glyph glyph-name="" unicode="&#x5b57;" d="M122 202 q8 -8 16 -22 q0 -8 -8 -6 l82 0 q40 0 16 -52 q-12 -8 -12 4 q18 36 -4 36 l-168 0 q-12 0 -12 -12 l0 -28 q-6 -8 -12 0 l0 32 q0 20 20 20 l88 0 q-6 10 -14 20 q-2 10 8 8 ZM48 138 l138 0 q30 -2 14 -20 q-30 -16 -74 -34 q-6 -4 0 -8 q12 -10 22 -22 l92 0 q10 -6 0 -12 l-86 0 q8 -26 4 -48 q-10 -32 -44 -30 q-22 -2 -52 10 q-6 10 4 12 q68 -24 80 10 q4 18 -6 46 l-120 0 q-8 6 0 12 l112 0 q-10 10 -18 16 q-12 10 -2 20 q38 16 74 32 q4 4 -6 4 l-132 0 q-8 6 0 12 Z" /><glyph glyph-name="" unicode="&#x5b66;" d="M104 196 q0 10 10 8 q20 -30 30 -54 l36 0 q14 16 26 48 q8 6 12 -4 q-6 -16 -22 -44 l26 0 q32 0 8 -62 q-8 -6 -12 4 q20 46 2 46 l-180 0 q-12 0 -12 -12 l0 -32 q-6 -8 -12 0 l0 36 q0 20 20 20 l26 0 q-8 14 -24 36 q0 8 8 8 q20 -24 30 -44 l54 0 q-10 22 -26 46 ZM52 110 l114 0 q30 0 24 -16 q-6 -8 -48 -26 q-14 -4 -4 -12 q4 -4 8 -10 l96 0 q8 -6 0 -12 l-90 0 q24 -70 -32 -74 q-28 0 -48 16 q-4 8 6 10 q20 -16 42 -14 q42 4 18 62 l-118 0 q-8 6 0 12 l112 0 q-4 4 -10 10 q-8 12 8 20 q56 20 34 22 l-112 0 q-8 6 0 12 Z" /><glyph glyph-name="" unicode="&#x5b8c;" d="M124 200 q6 -12 10 -24 l88 0 q32 0 12 -56 q-8 -6 -12 4 q16 40 0 40 l-182 0 q-12 0 -12 -12 l0 -24 q-6 -8 -12 0 l0 28 q0 20 20 20 l84 0 q-2 10 -8 20 q4 10 12 4 ZM46 128 l160 0 q8 -6 0 -12 l-160 0 q-8 6 0 12 ZM16 78 l226 0 q8 -6 0 -12 l-72 0 l0 -76 q0 -14 12 -12 l38 0 q14 -2 12 48 q6 8 12 0 q2 -64 -24 -60 l-42 0 q-20 -2 -20 20 l0 80 l-58 0 q6 -86 -86 -100 q-10 2 -4 12 q84 12 78 88 l-72 0 q-8 6 0 12 Z" /><glyph glyph-name="" unicode="&#x5b9a;" d="M120 204 q12 -12 16 -28 l80 0 q34 -2 10 -56 q-10 -6 -10 6 q18 36 -4 38 l-166 0 q-12 0 -12 -12 l0 -32 q-6 -10 -12 0 l0 36 q0 20 20 20 l80 0 q-4 10 -12 20 q-2 12 10 8 ZM50 132 l152 0 q10 -6 0 -12 l-72 0 l0 -52 l88 0 q10 -6 0 -12 l-88 0 l0 -64 q40 -14 114 -12 q8 -6 0 -12 q-140 -6 -188 64 q-12 -40 -40 -68 q-10 -6 -10 6 q48 60 46 130 q8 10 12 -2 q0 -20 -4 -50 q24 -38 58 -52 l0 124 l-68 0 q-10 6 0 12 Z" /><glyph glyph-name="" unicode="&#x5b9e;" d="M130 200 q6 -8 16 -24 l84 0 q24 0 6 -50 q-8 -6 -12 4 q14 34 0 34 l-174 0 q-12 0 -12 -12 l0 -26 q-6 -8 -12 0 l0 30 q0 20 20 20 l84 0 q-4 8 -12 18 q2 12 12 6 ZM144 46 q-26 -64 -122 -82 q-8 0 -4 12 q88 16 112 70 l-118 0 q-8 6 0 12 l122 0 q10 44 8 88 q6 8 12 0 q2 -38 -6 -88 l94 0 q8 -6 0 -12 l-98 0 ZM152 26 q-2 12 8 10 q44 -30 82 -62 q4 -10 -8 -10 q-46 38 -82 62 ZM90 150 q16 -18 32 -44 q2 -10 -10 -8 q-16 24 -32 44 q0 10 10 8 ZM62 122 q20 -22 36 -42 q0 -10 -10 -8 q-16 22 -36 42 q0 12 10 8 Z" /><glyph glyph-name="" unicode="&#x5ba2;" d="M128 200 q8 -10 14 -26 l80 0 q34 -2 16 -56 q-10 -6 -12 4 q14 40 -8 40 l-176 0 q-12 0 -12 -12 l0 -28 q-6 -8 -12 0 l0 30 q0 22 20 22 l90 0 q-6 14 -12 20 q2 10 12 6 ZM88 150 q10 8 12 -4 l-6 -8 l78 0 q32 0 26 -16 q2 -18 -48 -40 q52 -20 96 -24 q6 -8 -2 -12 q-36 2 -106 28 q-70 -22 -126 -28 q-10 4 -2 12 q58 8 114 24 q-26 12 -46 38 q-14 -18 -38 -30 q-14 2 -4 12 q34 20 52 48 ZM172 126 l-84 0 q18 -22 48 -38 q44 20 44 32 q4 6 -8 6 ZM68 46 l120 0 q24 0 22 -20 l0 -38 q2 -24 -20 -22 l-124 0 q-20 -2 -20 20 l0 40 q0 20 22 20 ZM186 34 l-116 0 q-12 0 -12 -12 l0 -32 q0 -14 12 -12 l116 0 q14 -2 12 10 l0 34 q2 12 -12 12 Z" /><glyph glyph-name="" unicode="&#x5bb6;" d="M126 202 l6 -24 l84 0 q36 0 12 -58 q-10 -8 -12 4 q18 42 0 42 l-172 0 q-12 0 -12 -12 l0 -32 q-6 -10 -12 0 l0 34 q0 22 22 22 l78 0 l-6 20 q2 10 12 4 ZM168 76 q32 -72 78 -84 q6 -12 -4 -12 q-52 12 -86 88 l-12 -8 q8 -24 6 -44 q2 -42 -34 -52 q-20 -6 -48 6 q-4 10 6 12 q22 -10 40 -6 q26 6 24 56 q-34 -32 -118 -60 q-10 4 -2 12 q84 30 118 62 q-4 10 -10 22 q-34 -32 -98 -50 q-10 2 -4 10 q72 24 96 52 q-6 10 -14 20 q-36 -24 -74 -32 q-10 4 -2 12 q54 12 92 50 l-74 0 q-10 6 0 12 l152 0 q8 -6 0 -12 l-64 0 q-4 -8 -22 -22 q16 -20 24 -36 q32 18 48 46 q10 2 10 -8 q-12 -20 -28 -34 Z" /><glyph glyph-name="" unicode="&#x5bcc;" d="M122 202 q6 -12 12 -24 l88 0 q36 0 14 -56 q-10 -6 -12 4 q16 40 -2 40 l-180 0 q-12 0 -12 -12 l0 -24 q-6 -8 -12 0 l0 26 q0 22 22 22 l80 0 q-4 8 -10 20 q4 10 12 4 ZM44 150 l168 0 q8 -6 0 -12 l-168 0 q-8 6 0 12 ZM66 122 l120 0 q24 0 22 -20 l0 -10 q2 -20 -20 -18 l-124 0 q-20 -2 -20 18 l0 8 q0 22 22 22 ZM184 110 l-116 0 q-12 0 -12 -12 l0 -4 q0 -10 12 -8 l118 0 q12 -2 10 8 l0 6 q2 10 -12 10 ZM50 58 l154 0 q26 0 24 -20 l0 -50 q2 -24 -22 -22 l-156 0 q-22 -2 -22 22 l0 48 q0 22 22 22 ZM120 46 l-68 0 q-12 0 -12 -12 l0 -16 l80 0 l0 28 ZM204 46 l-72 0 l0 -28 l84 0 l0 16 q2 12 -12 12 ZM120 6 l-80 0 l0 -16 q0 -14 12 -12 l68 0 l0 28 ZM216 6 l-84 0 l0 -28 l72 0 q14 -2 12 12 l0 16 Z" /><glyph glyph-name="" unicode="&#x5bf9;" d="M222 194 l0 -34 l20 0 q10 -6 0 -12 l-20 0 l0 -160 q4 -32 -68 -8 q-6 10 6 12 q54 -20 50 0 l0 156 l-84 0 q-10 6 0 12 l84 0 l0 34 q6 12 12 0 ZM22 168 l68 0 q28 -2 24 -24 q-4 -36 -28 -88 q22 -36 36 -66 q2 -14 -10 -8 q-14 30 -34 62 q-22 -38 -60 -68 q-10 -2 -8 8 q46 42 60 72 q-14 26 -46 74 q0 10 10 6 q28 -40 44 -68 q20 44 24 72 q2 16 -16 16 l-64 0 q-12 6 0 12 ZM156 126 q24 -50 34 -90 q-2 -12 -12 -4 q-10 40 -32 88 q0 12 10 6 Z" /><glyph glyph-name="" unicode="&#x5c16;" d="M122 80 q6 8 12 0 l0 -20 l108 0 q10 -6 0 -12 l-106 0 q32 -56 102 -74 q10 -8 -2 -12 q-72 18 -106 72 q-30 -62 -112 -70 q-10 4 -2 12 q86 10 106 72 l-104 0 q-10 6 0 12 l104 0 l0 20 ZM74 184 q10 6 10 -6 q-22 -44 -54 -80 q-10 -6 -10 6 q36 44 54 80 ZM172 176 q-2 12 10 8 q30 -44 52 -82 q-2 -12 -12 -4 q-26 42 -50 78 ZM122 198 q6 10 12 0 l0 -102 q-6 -10 -12 0 l0 102 Z" /><glyph glyph-name="" unicode="&#x5c31;" d="M62 192 q2 10 10 6 q6 -14 10 -28 l48 0 q6 -6 0 -12 l-116 0 q-8 6 0 12 l56 0 q-4 14 -8 22 ZM174 194 l0 -48 l62 0 q8 -6 0 -12 l-36 0 l0 -148 q0 -10 16 -8 q14 -4 12 60 q6 8 12 0 q4 -78 -28 -72 q-24 -2 -24 20 l0 148 l-14 0 q0 -100 -42 -166 q-14 -6 -10 8 q42 68 40 158 l-22 0 q-12 6 0 12 l22 0 l0 48 q6 8 12 0 ZM44 142 l56 0 q24 0 22 -20 l0 -36 q2 -22 -18 -20 l-26 0 l0 -86 q0 -22 -46 -8 q-8 8 4 12 q32 -14 30 0 l0 82 l-26 0 q-18 -2 -18 22 l0 32 q0 22 22 22 ZM100 130 l-56 0 q-10 0 -10 -10 l0 -30 q0 -14 8 -12 l56 0 q14 -2 12 10 l0 32 q2 10 -10 10 ZM36 54 q8 10 12 -2 q-10 -36 -32 -72 q-12 -4 -10 6 q22 40 30 68 ZM96 48 q2 12 12 4 q8 -20 18 -54 q-4 -12 -12 -2 q-8 26 -18 52 ZM196 182 q-4 10 6 10 q18 -14 32 -28 q4 -12 -8 -8 q-20 18 -30 26 Z" /><glyph glyph-name="" unicode="&#x5c40;" d="M52 196 l154 0 q24 0 22 -20 l0 -12 q2 -22 -22 -20 l-162 0 l0 -24 l164 0 q26 0 24 -20 l0 -96 q-2 -52 -100 -30 q-8 10 4 12 q82 -22 84 22 l0 90 q2 10 -14 10 l-162 0 q2 -70 -16 -138 q-10 -8 -12 4 q20 62 16 146 l0 56 q0 20 20 20 ZM204 184 l-148 0 q-12 0 -12 -12 l0 -16 l160 0 q14 -2 12 10 l0 8 q2 10 -12 10 ZM92 84 l74 0 q22 0 20 -20 l0 -40 q2 -26 -24 -24 l-66 0 q-24 -2 -24 22 l0 44 q0 18 20 18 ZM162 72 l-68 0 q-10 0 -10 -12 l0 -34 q0 -16 12 -14 l66 0 q14 -2 12 12 l0 36 q2 12 -12 12 Z" /><glyph glyph-name="" unicode="&#x5c55;" d="M48 194 l168 0 q22 0 20 -20 l0 -18 q2 -20 -20 -18 l-34 0 q8 -2 6 -8 l0 -20 l52 0 q8 -6 0 -12 l-52 0 l0 -32 l58 0 q6 -6 0 -12 l-104 0 q8 -22 28 -40 q38 12 60 32 q14 2 8 -10 q-22 -20 -58 -32 q32 -24 64 -28 q8 -8 -2 -12 q-84 14 -114 90 l-38 0 l0 -64 q0 -22 48 10 q12 0 6 -12 q-62 -36 -66 -6 l0 72 l-30 0 q-8 6 0 12 l52 0 l0 32 l-48 0 q-10 6 0 12 l48 0 l0 20 q0 6 6 8 l-66 0 l0 -80 q2 -50 -24 -90 q-14 -6 -10 8 q24 32 22 82 l0 116 q0 18 20 20 ZM212 182 l-160 0 q-12 0 -12 -12 l0 -20 l172 0 q14 -2 12 10 l0 10 q2 12 -12 12 ZM176 130 q0 6 6 8 l-76 0 q8 -2 6 -8 l0 -20 l64 0 l0 20 ZM176 98 l-64 0 l0 -32 l64 0 l0 32 Z" /><glyph glyph-name="" unicode="&#x5dde;" d="M70 196 l0 -106 q4 -80 -42 -128 q-10 0 -6 10 q38 44 36 118 l0 106 q6 8 12 0 ZM230 196 l0 -228 q-6 -10 -12 0 l0 228 q6 6 12 0 ZM150 188 l0 -204 q-6 -8 -12 0 l0 204 q6 8 12 0 ZM170 152 q26 -64 40 -118 q-4 -10 -12 -2 q-16 54 -40 116 q2 10 12 4 ZM42 148 q2 -72 -22 -116 q-10 -6 -10 6 q22 44 20 110 q6 8 12 0 ZM98 148 q18 -54 28 -114 q-6 -10 -12 -2 q-10 60 -28 112 q4 10 12 4 Z" /><glyph glyph-name="" unicode="&#x5de7;" d="M102 186 l136 0 q8 -6 0 -12 l-86 0 l-10 -50 q-4 -16 14 -14 l60 0 q24 0 22 -22 l0 -52 q-4 -68 -62 -68 q-34 0 -68 18 q-6 10 4 12 q32 -18 68 -18 q42 2 46 56 l0 48 q2 14 -14 14 l-62 0 q-26 -2 -22 24 l10 52 l-36 0 q-8 6 0 12 ZM18 182 l68 0 q8 -6 0 -12 l-24 0 l0 -140 l38 20 q10 0 6 -10 q-44 -26 -88 -44 q-10 2 -4 12 l36 16 l0 146 l-32 0 q-8 6 0 12 Z" /><glyph glyph-name="" unicode="&#x5de8;" d="M218 192 q10 -6 0 -12 l-164 0 q-12 0 -12 -12 l0 -40 l142 0 q24 0 22 -20 l0 -52 q2 -22 -22 -20 l-142 0 l0 -40 q0 -14 12 -12 l174 0 q10 -6 0 -12 l-176 0 q-22 -2 -22 22 l0 174 q0 24 24 24 l164 0 ZM182 116 l-140 0 l0 -68 l140 0 q14 -2 12 10 l0 48 q2 10 -12 10 Z" /><glyph glyph-name="" unicode="&#x5e02;" d="M130 170 q-16 16 -22 20 q-2 10 8 10 q14 -10 24 -22 q2 -10 -10 -8 ZM242 166 q10 -6 0 -12 l-108 0 l0 -34 l70 0 q24 0 22 -20 l0 -94 q4 -46 -74 -20 q-6 10 4 12 q62 -22 58 8 l0 90 q2 12 -14 12 l-66 0 l0 -136 q-6 -8 -12 0 l0 136 l-66 0 q-14 0 -14 -12 l0 -114 q-6 -8 -12 0 l0 118 q0 20 22 20 l70 0 l0 34 l-110 0 q-10 6 0 12 l230 0 Z" /><glyph glyph-name="" unicode="&#x5e03;" d="M116 196 q10 4 10 -6 q-8 -16 -16 -30 l132 0 q8 -6 0 -12 l-136 0 q-14 -26 -32 -44 l62 0 l0 28 q6 10 12 0 l0 -28 l62 0 q22 0 20 -20 l0 -74 q2 -32 -50 -14 q-6 10 4 12 q36 -16 34 4 l0 68 q2 12 -12 12 l-58 0 l0 -124 q-6 -10 -12 0 l0 124 l-62 0 l-4 -2 l0 -98 q-6 -10 -12 0 l0 96 q-20 -20 -46 -34 q-12 0 -4 12 q56 34 84 82 l-68 0 q-8 6 0 12 l74 0 q8 16 18 36 Z" /><glyph glyph-name="" unicode="&#x5e26;" d="M120 98 q6 12 12 0 l0 -26 l52 0 q22 0 20 -20 l0 -56 q0 -28 -50 -12 q-6 10 4 12 q34 -14 34 4 l0 48 q2 12 -12 12 l-48 0 l0 -90 q-6 -10 -12 0 l0 90 l-48 0 q-12 0 -12 -12 l0 -68 q-6 -8 -12 0 l0 72 q0 20 20 20 l52 0 l0 26 ZM212 120 q38 0 14 -52 q-10 -6 -12 4 q20 36 -2 36 l-172 0 q-12 0 -12 -12 l0 -24 q-6 -8 -12 0 l0 28 q0 18 18 20 l178 0 ZM16 164 l44 0 l0 24 q6 8 12 0 l0 -24 l48 0 l0 32 q6 8 12 0 l0 -32 l44 0 l0 24 q6 8 12 0 l0 -24 l52 0 q10 -6 0 -12 l-52 0 l0 -20 q-6 -8 -12 0 l0 20 l-44 0 l0 -24 q-6 -8 -12 0 l0 24 l-48 0 l0 -20 q-6 -8 -12 0 l0 20 l-44 0 q-8 6 0 12 Z" /><glyph glyph-name="" unicode="&#x5e38;" d="M134 198 l0 -38 l42 0 q10 12 20 32 q10 8 12 -4 q-10 -20 -16 -28 l26 0 q20 0 24 -16 q2 -16 -8 -38 q-10 -8 -12 4 q18 38 -4 38 l-180 0 q-12 0 -12 -12 l0 -28 q-6 -8 -12 0 l0 32 q0 20 20 20 l40 0 q-10 16 -20 26 q-2 10 8 8 q16 -16 26 -34 l34 0 l0 38 q6 8 12 0 ZM74 132 l108 0 q22 0 20 -20 l0 -20 q2 -22 -20 -20 l-48 0 l0 -16 l72 0 q22 0 20 -20 l0 -40 q2 -30 -56 -14 q-8 8 2 12 q44 -14 42 4 l0 34 q2 12 -12 12 l-68 0 l0 -76 q-6 -8 -12 0 l0 76 l-64 0 q-12 0 -12 -12 l0 -52 q-6 -8 -12 0 l0 56 q0 20 20 20 l68 0 l0 16 l-48 0 q-20 -2 -20 20 l0 20 q0 20 20 20 ZM178 120 l-100 0 q-12 0 -12 -12 l0 -12 q0 -14 12 -12 l100 0 q14 -2 12 12 l0 12 q2 12 -12 12 Z" /><glyph glyph-name="" unicode="&#x5e72;" d="M36 188 l180 0 q8 -6 0 -12 l-88 0 l0 -72 l108 0 q8 -6 0 -12 l-108 0 l0 -120 q-6 -8 -12 0 l0 120 l-96 0 q-8 6 0 12 l96 0 l0 72 l-80 0 q-8 6 0 12 Z" /><glyph glyph-name="" unicode="&#x5e74;" d="M72 198 q10 10 12 -2 l-6 -16 l156 0 q8 -6 0 -12 l-90 0 l0 -56 l86 0 q8 -6 0 -12 l-86 0 l0 -60 l94 0 q8 -6 0 -12 l-94 0 l0 -62 q-6 -8 -12 0 l0 62 l-112 0 q-10 6 0 12 l34 0 l0 50 q0 20 18 22 l60 0 l0 56 l-60 0 q-18 -34 -48 -60 q-14 -2 -8 10 q40 36 56 80 ZM132 40 l0 60 l-56 0 q-10 0 -10 -12 l0 -48 l66 0 Z" /><glyph glyph-name="" unicode="&#x5e86;" d="M140 202 q10 -18 12 -26 l84 0 q10 -6 0 -12 l-178 0 q-14 0 -14 -14 l0 -70 q2 -68 -22 -112 q-10 -6 -10 6 q22 46 20 106 l0 72 q0 24 22 24 l84 0 q-4 12 -10 20 q2 10 12 6 ZM136 154 q6 10 12 0 q0 -24 -2 -44 l90 0 q10 -6 0 -12 l-82 0 q30 -92 86 -122 q6 -10 -6 -10 q-62 32 -90 126 q-16 -78 -92 -128 q-12 0 -6 10 q76 52 86 124 l-76 0 q-8 6 0 12 l78 0 q2 16 2 44 Z" /><glyph glyph-name="" unicode="&#x5efa;" d="M244 -24 q8 -6 0 -12 l-90 0 q-54 -2 -98 42 q-18 -28 -36 -44 q-10 -2 -8 8 q20 20 36 46 q-18 24 -26 60 q4 10 12 2 q6 -26 20 -50 q12 26 16 54 q2 10 -10 10 l-18 0 q-30 -2 -14 26 q24 30 34 50 q6 8 -6 8 l-38 0 q-8 6 0 12 l36 0 q28 0 22 -18 q-10 -24 -36 -56 q-8 -12 6 -10 l14 0 q24 0 22 -20 q-4 -32 -20 -68 q42 -42 92 -40 l90 0 ZM198 168 l-36 0 l0 -28 l48 0 l0 16 q2 12 -12 12 ZM210 128 l-48 0 l0 -28 l36 0 q14 -2 12 12 l0 16 ZM150 198 q6 8 12 0 l0 -18 l38 0 q26 0 22 -22 l0 -18 l22 0 q8 -6 0 -12 l-22 0 l0 -22 q2 -20 -20 -18 l-40 0 l0 -24 l64 0 q8 -6 0 -12 l-64 0 l0 -24 l72 0 q8 -6 0 -12 l-72 0 l0 -30 q-6 -8 -12 0 l0 30 l-68 0 q-8 6 0 12 l68 0 l0 24 l-60 0 q-8 6 0 12 l60 0 l0 24 l-56 0 q-8 6 0 12 l56 0 l0 28 l-64 0 q-10 6 0 12 l64 0 l0 28 l-56 0 q-10 6 0 12 l56 0 l0 18 Z" /><glyph glyph-name="" unicode="&#x5f00;" d="M32 192 l196 0 q8 -6 0 -12 l-40 0 l0 -78 l56 0 q8 -6 0 -12 l-56 0 l0 -118 q-6 -8 -12 0 l0 118 l-96 0 q2 -84 -36 -122 q-12 -2 -8 8 q36 42 32 114 l-56 0 q-8 6 0 12 l56 0 l0 78 l-36 0 q-8 6 0 12 ZM176 180 l-96 0 l0 -78 l96 0 l0 78 Z" /><glyph glyph-name="" unicode="&#x5f0f;" d="M158 192 l2 -40 l76 0 q8 -6 0 -12 l-74 0 q22 -148 58 -160 q12 -4 12 56 q8 6 12 -2 q2 -70 -22 -68 q-48 2 -72 174 l-130 0 q-8 6 0 12 l128 0 l-2 40 q6 8 12 0 ZM174 198 q26 -12 50 -30 q6 -12 -6 -12 q-26 18 -50 30 q-4 10 6 12 ZM24 100 l112 0 q8 -6 0 -12 l-48 0 l0 -88 q38 10 58 18 q10 -4 4 -12 q-70 -24 -130 -34 q-10 2 -4 12 q38 6 60 14 l0 90 l-52 0 q-8 6 0 12 Z" /><glyph glyph-name="" unicode="&#x5f97;" d="M124 196 l78 0 q24 0 22 -20 l0 -46 q2 -24 -22 -22 l-78 0 q-20 -2 -20 20 l0 48 q0 20 20 20 ZM200 184 l-72 0 q-12 0 -12 -12 l0 -12 l96 0 l0 14 q2 10 -12 10 ZM212 148 l-96 0 l0 -16 q0 -14 12 -12 l72 0 q14 -2 12 12 l0 16 ZM118 36 q20 -16 40 -38 q2 -12 -10 -8 q-16 18 -38 36 q-4 12 8 10 ZM98 78 q-8 6 0 12 l132 0 q8 -6 0 -12 l-18 0 l0 -24 l32 0 q8 -6 0 -12 l-32 0 l0 -54 q2 -30 -52 -18 q-8 8 2 14 q42 -14 38 8 l0 50 l-114 0 q-10 6 0 12 l114 0 l0 24 l-102 0 ZM66 204 q8 6 12 -4 q-22 -50 -56 -76 q-10 -2 -8 10 q36 32 52 70 ZM82 152 q10 4 10 -6 q-8 -22 -28 -50 l0 -128 q-6 -8 -12 0 l0 114 q-20 -22 -36 -30 q-10 0 -6 10 q48 34 72 90 Z" /><glyph glyph-name="" unicode="&#x5fb7;" d="M148 200 q8 8 12 0 l-2 -16 l76 0 q10 -6 0 -12 l-78 0 l-2 -16 l52 0 q22 0 20 -20 l0 -24 q2 -22 -20 -20 l-104 0 q-20 -2 -20 20 l0 24 q0 20 20 20 l40 0 l2 16 l-62 0 q-10 6 0 12 l64 0 l2 16 ZM58 196 q8 8 12 -4 q-18 -44 -50 -70 q-12 -2 -8 10 q32 28 46 64 ZM126 144 l-20 0 q-12 0 -12 -12 l0 -16 q0 -14 12 -12 l20 0 l0 40 ZM170 144 l-32 0 l0 -40 l32 0 l0 40 ZM202 144 l-20 0 l0 -40 l20 0 q14 -2 12 12 l0 16 q2 12 -12 12 ZM66 134 q10 2 10 -8 q-12 -22 -26 -42 l0 -114 q-6 -10 -12 0 l0 100 q-16 -18 -26 -22 q-8 0 -6 10 q32 24 60 76 ZM74 74 l160 0 q8 -6 0 -12 l-160 0 q-8 6 0 12 ZM160 52 q12 -22 24 -52 q-4 -12 -14 -4 q-8 26 -22 48 q0 12 12 8 ZM110 46 q6 8 12 0 l0 -50 q0 -14 16 -12 l50 0 q16 -4 14 26 q6 10 12 0 q2 -42 -22 -38 l-58 0 q-24 -2 -24 20 l0 54 ZM94 40 q-4 -32 -18 -58 q-12 -6 -10 6 q14 32 16 54 q8 10 12 -2 ZM218 46 q18 -28 26 -60 q-2 -12 -10 -4 q-10 32 -26 58 q0 12 10 6 Z" /><glyph glyph-name="" unicode="&#x5feb;" d="M58 202 l0 -238 q-8 -8 -12 0 l0 238 q6 8 12 0 ZM146 198 q6 8 12 0 l0 -36 l46 0 q20 0 18 -20 l0 -60 l24 0 q6 -6 0 -12 l-72 0 q28 -76 70 -90 q6 -10 -6 -12 q-50 22 -76 102 l-4 0 q-16 -72 -78 -102 q-12 0 -4 12 q58 34 70 90 l-66 0 q-8 6 0 12 l66 0 l0 68 l-44 0 q-8 6 0 12 l44 0 l0 36 ZM26 156 q0 -52 -12 -90 q-8 -6 -12 2 q12 44 12 88 q6 10 12 0 ZM70 154 q2 10 10 4 q10 -32 12 -52 q-2 -10 -10 -4 q-6 30 -12 52 ZM200 150 l-42 0 l0 -68 l52 0 l0 58 q2 10 -10 10 Z" /><glyph glyph-name="" unicode="&#x5ff5;" d="M120 198 q10 6 18 0 q44 -44 108 -62 q6 -8 -2 -12 q-66 16 -110 60 q-6 6 -10 0 q-36 -38 -114 -60 q-10 4 -2 12 q70 18 112 62 ZM142 118 q-22 14 -42 24 q-4 10 6 12 q22 -11 44 -26 q6 -12 -8 -10 ZM196 112 q34 0 18 -22 q-20 -20 -62 -40 q-14 2 -4 12 q32 14 52 30 q10 8 -8 8 l-160 0 q-8 6 0 12 l164 0 ZM104 72 q-2 12 10 8 q18 -34 26 -54 q-2 -12 -12 -4 q-10 24 -24 50 ZM198 40 q2 12 12 6 q16 -26 32 -64 q-2 -12 -12 -4 q-14 32 -32 62 ZM80 52 q6 10 12 0 l0 -58 q0 -16 12 -14 l60 0 q22 -2 20 36 q6 10 12 0 q4 -50 -28 -48 l-66 0 q-22 -2 -22 24 l0 60 ZM42 42 q8 10 12 -2 q-4 -36 -22 -66 q-10 -6 -10 6 q16 30 20 62 Z" /><glyph glyph-name="" unicode="&#x6000;" d="M46 198 q6 8 12 0 l0 -226 q-6 -10 -12 0 l0 226 ZM90 182 l144 0 q8 -6 0 -12 l-52 0 q-10 -26 -20 -48 l0 -156 q-6 -8 -12 0 l0 134 q-30 -52 -66 -84 q-12 -2 -8 10 q66 66 92 144 l-78 0 q-8 6 0 12 ZM78 156 q10 -30 14 -68 q-6 -12 -12 0 q-4 32 -14 66 q6 12 12 2 ZM18 152 q6 10 12 0 q-2 -42 -12 -86 q-10 -8 -12 4 q10 42 12 82 ZM188 120 q34 -54 54 -98 q-2 -12 -12 -4 q-20 42 -52 96 q0 10 10 6 Z" /><glyph glyph-name="" unicode="&#x6027;" d="M166 200 q6 8 12 0 l0 -48 l56 0 q8 -6 0 -12 l-56 0 l0 -72 l56 0 q8 -6 0 -12 l-56 0 l0 -72 l64 0 q8 -6 0 -12 l-144 0 q-8 6 0 12 l68 0 l0 72 l-56 0 q-8 6 0 12 l56 0 l0 72 l-42 0 q-6 -22 -16 -44 q-10 -8 -12 4 q14 24 24 86 q8 8 12 -2 l-6 -32 l40 0 l0 48 ZM46 198 q6 10 12 0 l0 -228 q-6 -10 -12 0 l0 228 ZM30 154 q0 -52 -12 -98 q-8 -8 -12 2 q12 50 12 98 q6 8 12 -2 ZM80 156 q8 -36 12 -82 q-4 -10 -12 -2 q-4 46 -12 82 q4 10 12 2 Z" /><glyph glyph-name="" unicode="&#x603b;" d="M176 200 q10 8 12 -4 q-10 -26 -22 -46 l32 0 q22 0 20 -20 l0 -48 q2 -22 -20 -20 l-144 0 q-18 -2 -20 20 l0 48 q2 20 20 20 l98 0 q16 28 24 50 ZM194 138 l-136 0 q-12 0 -12 -12 l0 -40 q0 -14 12 -12 l136 0 q14 -2 12 12 l0 40 q2 12 -12 12 ZM124 54 q14 -26 24 -56 q-2 -12 -12 -4 q-10 30 -24 56 q2 10 12 4 ZM70 46 q6 10 12 0 l0 -54 q0 -16 12 -14 l70 0 q18 -4 18 44 q6 10 12 0 q2 -58 -28 -56 l-74 0 q-22 -2 -22 26 l0 54 ZM32 44 q8 8 12 -2 q-4 -38 -22 -72 q-10 -4 -10 6 q16 36 20 68 ZM218 48 q18 -32 28 -72 q-4 -12 -12 -2 q-8 30 -28 68 q2 12 12 6 ZM60 194 q2 14 12 6 q14 -20 26 -42 q-2 -10 -12 -4 q-12 20 -26 40 Z" /><glyph glyph-name="" unicode="&#x606f;" d="M116 200 q10 8 14 -4 q-4 -6 -12 -18 l76 0 q26 0 24 -20 l0 -76 q2 -22 -20 -20 l-144 0 q-20 -2 -20 20 l0 76 q0 20 24 20 l44 0 q8 8 14 22 ZM190 166 l-128 0 q-16 0 -16 -12 l0 -10 l160 0 l0 10 q2 12 -16 12 ZM206 132 l-160 0 l0 -22 l160 0 l0 22 ZM206 98 l-160 0 l0 -12 q0 -14 12 -12 l136 0 q14 -2 12 12 l0 12 ZM86 44 l0 -54 q0 -14 12 -12 l70 0 q20 -4 18 44 q6 8 12 0 q4 -60 -30 -56 l-74 0 q-20 -2 -20 20 l0 58 q6 10 12 0 ZM130 52 q18 -32 22 -52 q-4 -10 -12 -4 q-6 22 -20 50 q0 10 10 6 ZM42 42 q8 8 12 -4 q-12 -38 -30 -60 q-12 -4 -10 8 q18 24 28 56 ZM204 50 q22 -26 38 -60 q0 -10 -10 -8 q-18 34 -38 60 q0 10 10 8 Z" /><glyph glyph-name="" unicode="&#x60a8;" d="M58 196 q10 10 12 -4 q-10 -26 -18 -46 l0 -96 q-6 -8 -12 0 l0 76 q-8 -14 -22 -30 q-12 -2 -8 10 q32 36 48 90 ZM106 196 q8 8 12 -2 q-2 -8 -6 -18 l108 0 q30 0 12 -40 q-10 -8 -12 4 q14 24 -2 24 l-46 0 l0 -102 q2 -26 -50 -6 q-6 12 6 12 q36 -16 32 -2 l0 98 l-52 0 q-8 -22 -20 -46 q-10 -6 -10 6 q18 36 28 72 ZM120 140 q10 8 12 -4 q-14 -44 -34 -70 q-10 -4 -10 6 q24 38 32 68 ZM186 136 q0 12 10 6 q20 -34 34 -70 q-2 -12 -10 -4 q-18 36 -34 68 ZM130 42 q20 -22 34 -40 q2 -12 -10 -8 q-16 20 -32 38 q-4 12 8 10 ZM58 30 q-8 -34 -22 -62 q-10 -8 -12 4 q14 30 22 62 q10 8 12 -4 ZM92 36 l0 -48 q0 -14 12 -12 l66 0 q20 -4 18 30 q6 8 12 0 q2 -46 -30 -42 l-66 0 q-24 -2 -24 22 l0 50 q6 10 12 0 ZM206 40 q22 -32 36 -60 q0 -10 -10 -6 q-14 26 -36 58 q-2 12 10 8 Z" /><glyph glyph-name="" unicode="&#x60f3;" d="M68 198 l0 -32 l42 0 q8 -6 0 -12 l-40 0 q26 -32 40 -56 q0 -12 -10 -6 q-12 20 -32 44 l0 -74 q-6 -8 -12 0 l0 70 q-16 -32 -40 -58 q-14 -4 -8 10 q24 26 46 70 l-40 0 q-6 8 0 12 l42 0 l0 32 q6 8 12 0 ZM148 192 l60 0 q22 0 20 -20 l0 -92 q2 -22 -20 -20 l-60 0 q-20 -4 -20 20 l0 92 q0 20 20 20 ZM204 180 l-52 0 q-12 0 -12 -12 l0 -16 l76 0 l0 16 q2 12 -12 12 ZM216 140 l-76 0 l0 -28 l76 0 l0 28 ZM216 100 l-76 0 l0 -16 q0 -14 12 -12 l52 0 q14 -2 12 12 l0 16 ZM124 58 q18 -24 36 -54 q0 -12 -12 -6 q-16 30 -34 52 q0 12 10 8 ZM88 46 l0 -52 q0 -14 12 -12 l74 0 q16 -4 14 32 q6 8 12 0 q2 -48 -26 -44 l-78 0 q-20 -2 -20 20 l0 56 q6 8 12 0 ZM48 42 q-4 -40 -22 -74 q-10 -4 -12 6 q18 34 22 68 q6 8 12 0 ZM210 46 q22 -30 32 -70 q-2 -10 -10 -4 q-14 40 -32 68 q0 10 10 6 Z" /><glyph glyph-name="" unicode="&#x6109;" d="M50 194 l0 -222 q-6 -8 -12 0 l0 222 q6 10 12 0 ZM140 190 q14 12 32 0 q38 -36 72 -50 q6 -10 -4 -12 q-38 16 -78 54 q-6 6 -12 0 q-24 -30 -66 -52 q-12 -2 -6 10 q40 20 62 50 ZM10 148 q8 10 12 0 q2 -42 -8 -82 q-10 -8 -12 4 q8 36 8 78 ZM118 142 l76 0 q10 -6 0 -12 l-76 0 q-10 6 0 12 ZM230 114 l0 -118 q4 -26 -22 -28 q-14 0 -28 4 q-6 8 4 12 q38 -12 34 14 l0 116 q6 8 12 0 ZM110 114 l28 0 q22 0 20 -18 l0 -102 q2 -32 -40 -20 q-6 8 4 12 q26 -10 24 8 l0 32 l-44 0 l0 -52 q-6 -8 -12 0 l0 118 q0 22 20 22 ZM146 90 q2 12 -12 12 l-22 0 q-10 0 -10 -12 l0 -12 l44 0 l0 12 ZM194 102 l0 -96 q-6 -8 -12 0 l0 96 q6 10 12 0 ZM146 66 l-44 0 l0 -28 l44 0 l0 28 ZM58 148 q4 10 12 2 q6 -34 8 -56 q-6 -8 -12 0 q-2 20 -8 54 Z" /><glyph glyph-name="" unicode="&#x610f;" d="M122 206 q8 -12 14 -22 l90 0 q8 -6 0 -12 l-34 0 q-6 -14 -12 -28 l58 0 q8 -6 0 -12 l-220 0 q-8 4 0 12 l68 0 q-4 12 -12 28 l-44 0 q-8 6 0 12 l92 0 q-4 8 -10 16 q0 10 10 6 ZM178 172 l-92 0 q6 -12 12 -28 l68 0 q8 14 12 28 ZM56 116 l146 0 q22 -2 20 -22 l0 -38 q2 -22 -22 -20 l-146 0 q-20 -2 -20 20 l0 38 q2 22 22 22 ZM198 104 l-140 0 q-12 0 -12 -12 l0 -10 l164 0 l0 10 q2 12 -12 12 ZM210 70 l-164 0 l0 -10 q0 -14 12 -12 l140 0 q14 -2 12 12 l0 10 ZM42 22 q10 6 10 -6 q-12 -24 -32 -40 q-10 -4 -8 8 q20 18 30 38 ZM122 28 q14 -22 18 -38 q-4 -10 -12 -2 q-6 16 -16 34 q0 10 10 6 ZM86 24 l0 -36 q0 -14 12 -12 l58 0 q16 -2 14 34 q6 8 12 0 q4 -48 -24 -46 l-64 0 q-20 -2 -20 20 l0 40 q6 8 12 0 ZM198 28 q26 -24 44 -46 q2 -14 -10 -8 q-18 20 -42 44 q-6 12 8 10 Z" /><glyph glyph-name="" unicode="&#x620f;" d="M158 198 q0 -26 2 -58 l76 0 q10 -6 0 -12 l-76 0 q4 -52 18 -92 q22 36 34 72 q10 4 12 -6 q-14 -38 -40 -80 q18 -38 36 -44 q12 -4 10 54 q6 8 12 0 q2 -68 -20 -68 q-22 0 -48 50 q-22 -24 -58 -46 q-12 -2 -6 10 q36 22 58 48 q-16 48 -20 102 l-36 0 q-6 6 0 12 l36 0 q-2 32 -2 58 q6 8 12 0 ZM188 200 q16 -14 38 -42 q2 -12 -10 -8 q-22 28 -36 40 q-2 10 8 10 ZM22 166 l60 0 q24 0 22 -20 q-2 -56 -24 -98 q16 -24 30 -52 q2 -12 -10 -6 q-12 22 -28 48 q-22 -38 -54 -66 q-10 -2 -8 8 q32 32 54 68 q-18 28 -38 58 q0 12 10 8 q20 -30 36 -56 q18 40 20 86 q2 10 -12 10 l-58 0 q-8 4 0 12 Z" /><glyph glyph-name="" unicode="&#x6210;" d="M154 154 q4 -60 18 -106 q22 36 30 72 q8 8 12 -2 q-10 -42 -36 -84 q22 -46 42 -56 q12 0 10 56 q6 10 12 0 q2 -54 -10 -66 q-6 -6 -18 -2 q-24 14 -46 60 q-30 -32 -80 -54 q-12 2 -4 12 q46 20 78 54 q-16 48 -20 116 l-88 0 q-16 0 -16 -16 l0 -28 l52 0 q26 0 24 -26 l-4 -58 q-4 -40 -66 -8 q-6 12 6 12 q48 -26 48 -2 l4 54 q2 16 -16 16 l-48 0 l0 -24 q2 -70 -24 -106 q-10 -6 -10 6 q24 42 22 100 l0 66 q0 26 28 26 l88 0 l-2 32 q6 10 12 0 l2 -32 l62 0 l-14 22 q0 10 10 8 q16 -24 30 -54 q0 -12 -10 -6 q-6 10 -10 18 l-68 0 Z" /><glyph glyph-name="" unicode="&#x6211;" d="M156 200 l4 -74 l82 0 q10 -6 0 -12 l-80 0 q4 -40 14 -70 q22 30 36 60 q10 4 10 -6 q-12 -30 -40 -68 q20 -40 38 -50 q14 -10 14 46 q4 8 12 0 q2 -66 -26 -62 q-26 12 -48 58 q-24 -24 -60 -46 q-12 0 -6 10 q38 24 60 48 q-12 34 -16 80 l-66 0 l0 -50 q22 8 44 18 q12 -2 4 -12 q-20 -10 -48 -20 l0 -58 q4 -30 -26 -26 q-18 2 -34 10 q-8 10 4 12 q48 -20 44 0 l0 58 q-26 -10 -52 -16 q-12 2 -4 12 q34 10 56 18 l0 54 l-56 0 q-8 6 0 12 l56 0 l0 42 q-26 -6 -46 -8 q-10 2 -2 12 q52 6 98 24 q10 -2 4 -12 q-14 -6 -42 -14 l0 -44 l64 0 l-4 74 q6 8 12 0 ZM192 192 q16 -22 30 -50 q-2 -14 -12 -4 q-14 24 -30 48 q2 14 12 6 Z" /><glyph glyph-name="" unicode="&#x6218;" d="M168 198 l0 -56 l72 0 q8 -6 0 -12 l-72 0 q4 -58 12 -88 q26 36 36 68 q10 6 12 -4 q-10 -32 -42 -78 q16 -44 32 -48 q16 4 14 58 q6 10 12 0 q2 -68 -26 -72 q-22 2 -42 54 q-26 -26 -62 -50 q-12 -2 -6 10 q38 26 62 52 q-10 34 -14 98 l-40 0 q-8 6 0 12 l40 0 l0 56 q6 8 12 0 ZM64 194 l0 -28 l56 0 q8 -6 0 -12 l-56 0 l0 -44 l28 0 q22 0 20 -20 l0 -72 q2 -26 -20 -24 l-52 0 q-20 -2 -20 20 l0 74 q0 22 20 22 l12 0 l0 84 q6 8 12 0 ZM200 194 q22 -22 32 -38 q2 -12 -8 -8 q-14 18 -32 38 q-2 12 8 8 ZM88 98 l-44 0 q-12 0 -12 -12 l0 -68 q0 -14 12 -12 l44 0 q14 -2 12 12 l0 68 q2 12 -12 12 Z" /><glyph glyph-name="" unicode="&#x6237;" d="M128 206 q12 -16 20 -32 l58 0 q26 0 24 -20 l0 -50 q2 -24 -22 -22 l-152 0 q2 -70 -34 -120 q-12 -4 -10 8 q36 52 32 120 l0 60 q0 24 22 24 l68 0 q-8 12 -16 24 q0 12 10 8 ZM206 162 l-138 0 q-12 0 -12 -14 l0 -54 l150 0 q14 -2 12 12 l0 44 q2 12 -12 12 Z" /><glyph glyph-name="" unicode="&#x624b;" d="M218 200 q8 -4 2 -12 q-42 -10 -96 -16 q8 -18 16 -50 l90 0 q8 -6 0 -12 l-86 0 q8 -36 8 -52 l92 0 q8 -6 0 -12 l-92 0 q4 -76 -30 -80 q-34 -6 -62 14 q-4 10 6 10 q28 -16 52 -12 q26 4 22 68 l-128 0 q-10 6 0 12 l128 0 q-2 30 -8 52 l-102 0 q-8 6 0 12 l98 0 q-6 26 -18 50 q-34 -4 -76 -6 q-8 6 0 12 q112 4 184 22 Z" /><glyph glyph-name="" unicode="&#x6251;" d="M172 196 l0 -56 q40 -42 74 -86 q2 -12 -8 -8 q-36 44 -66 76 l0 -152 q-6 -10 -12 0 l0 226 q6 8 12 0 ZM84 198 l0 -48 l44 0 q8 -6 0 -12 l-44 0 l0 -64 q24 12 38 22 q10 -2 6 -10 q-12 -10 -44 -24 l0 -70 q2 -34 -58 -14 q-6 12 6 12 q42 -16 40 4 l0 64 q-18 -10 -46 -16 q-10 2 -2 12 q20 4 48 16 l0 68 l-48 0 q-10 6 0 12 l48 0 l0 48 q6 10 12 0 Z" /><glyph glyph-name="" unicode="&#x6280;" d="M166 196 l0 -28 l68 0 q10 -6 0 -12 l-68 0 l0 -40 l40 0 q26 0 18 -24 q-14 -38 -50 -72 q34 -28 64 -42 q10 -10 -4 -12 q-36 16 -70 46 q-46 -32 -92 -44 q-12 4 -2 12 q48 14 84 40 q-30 34 -48 84 l-8 0 q-8 6 0 12 l56 0 l0 40 l-64 0 q-8 6 0 12 l64 0 l0 28 q6 8 12 0 ZM58 192 l0 -48 l32 0 q8 -6 0 -12 l-32 0 l0 -60 q10 6 26 16 q10 0 6 -10 q-14 -10 -32 -20 l0 -76 q0 -22 -44 -12 q-6 10 4 12 q30 -8 28 2 l0 68 q-14 -8 -30 -14 q-10 4 -4 12 q16 6 34 16 l0 66 l-32 0 q-10 6 0 12 l32 0 l0 48 q6 10 12 0 ZM118 104 q18 -46 46 -76 q34 32 48 68 q2 8 -8 8 l-86 0 Z" /><glyph glyph-name="" unicode="&#x628a;" d="M58 196 l0 -48 l28 0 q8 -6 0 -12 l-28 0 l0 -68 q12 8 22 18 q10 0 6 -10 q-10 -10 -28 -22 l0 -70 q2 -24 -44 -10 q-6 10 4 12 q30 -14 28 2 l0 60 q-14 -8 -28 -14 q-12 2 -4 12 q12 4 32 16 l0 74 l-32 0 q-8 6 0 12 l32 0 l0 48 q6 8 12 0 ZM122 188 l86 0 q24 0 22 -22 l0 -64 q2 -24 -26 -22 l-94 0 l0 -84 q0 -18 16 -16 l90 0 q16 0 14 52 q6 10 12 0 q2 -66 -26 -64 l-94 0 q-24 -2 -24 24 l0 174 q0 22 24 22 ZM158 176 l-34 0 q-14 0 -14 -14 l0 -70 l48 0 l0 84 ZM204 176 l-34 0 l0 -84 l34 0 q16 0 14 12 l0 60 q2 12 -14 12 Z" /><glyph glyph-name="" unicode="&#x62c9;" d="M60 196 l0 -46 l26 0 q10 -6 0 -12 l-26 0 l0 -58 q16 10 24 16 q12 2 6 -10 q-12 -8 -30 -20 l0 -76 q2 -32 -50 -18 q-6 10 6 12 q36 -14 32 10 l0 66 q-16 -8 -36 -18 q-12 2 -4 12 q26 12 40 20 l0 64 l-36 0 q-8 6 0 12 l36 0 l0 46 q6 10 12 0 ZM160 194 q10 -16 18 -36 l62 0 q8 -6 0 -12 l-142 0 q-8 6 0 12 l66 0 q-6 16 -14 28 q0 12 10 8 ZM220 134 q-10 -98 -24 -152 l48 0 q8 -6 0 -12 l-164 0 q-12 6 0 12 l104 0 q16 70 24 152 q6 12 12 0 ZM120 132 q18 -72 20 -138 q-4 -10 -12 0 q-4 78 -20 136 q4 12 12 2 Z" /><glyph glyph-name="" unicode="&#x62ff;" d="M122 198 q10 6 20 0 q44 -26 102 -38 q8 -8 -2 -12 q-62 12 -102 36 q-8 6 -16 0 q-50 -28 -110 -34 q-10 4 0 12 q60 8 108 36 ZM80 160 l104 0 q10 -6 0 -12 l-104 0 q-10 6 0 12 ZM224 86 q12 -4 2 -12 q-36 -6 -86 -8 q6 -6 12 -18 l76 0 q8 -6 0 -12 l-72 0 q4 -10 4 -16 l86 0 q6 -6 0 -12 l-86 0 q0 -40 -40 -42 q-28 -2 -52 10 q-10 10 4 12 q24 -12 46 -12 q30 4 30 32 l-134 0 q-8 6 0 12 l134 0 q0 8 -4 16 l-116 0 q-8 6 0 12 l112 0 q-6 8 -14 18 q-54 -4 -94 -2 q-10 4 0 12 q116 -2 192 10 ZM196 124 l-130 0 q-14 0 -14 -10 q0 -14 14 -12 l126 0 q16 -2 16 10 l0 0 q0 12 -12 12 ZM64 136 l132 0 q26 0 24 -22 l0 -2 q2 -24 -28 -22 l-130 0 q-22 -2 -22 20 l0 6 q0 20 24 20 Z" /><glyph glyph-name="" unicode="&#x6307;" d="M64 196 l0 -48 l34 0 q8 -6 0 -12 l-34 0 l0 -58 q16 8 30 16 q10 -2 4 -12 q-20 -12 -34 -18 l0 -68 q4 -36 -46 -20 q-4 10 6 12 q32 -12 28 8 l0 62 q-18 -8 -32 -12 q-10 4 -4 12 q20 6 36 14 l0 64 l-36 0 q-8 6 0 12 l36 0 l0 48 q6 8 12 0 ZM120 196 l0 -44 q50 6 104 26 q12 -2 6 -12 q-56 -20 -110 -26 l0 -24 q0 -14 14 -12 l72 0 q24 -2 22 36 q6 8 12 0 q2 -50 -32 -48 l-78 0 q-22 -2 -22 20 l0 84 q6 8 12 0 ZM126 76 l82 0 q22 0 20 -20 l0 -68 q2 -22 -20 -20 l-80 0 q-20 -2 -20 20 l0 68 q0 18 18 20 ZM204 64 l-72 0 q-12 0 -12 -12 l0 -24 l96 0 l0 24 q2 12 -12 12 ZM216 16 l-96 0 l0 -24 q0 -14 12 -12 l72 0 q14 -2 12 12 l0 24 Z" /><glyph glyph-name="" unicode="&#x6311;" d="M40 196 q6 8 12 0 l0 -46 l26 0 q8 -6 0 -12 l-26 0 l0 -56 q12 8 18 14 q12 4 8 -8 q-14 -14 -26 -20 l0 -76 q4 -34 -44 -18 q-4 10 6 12 q28 -12 26 6 l0 68 q-14 -8 -26 -14 q-12 2 -4 12 q18 8 30 16 l0 64 l-30 0 q-10 6 0 12 l30 0 l0 46 ZM138 196 l0 -120 q4 -82 -54 -110 q-10 0 -6 12 q52 26 48 94 q-20 -22 -54 -38 q-10 2 -4 12 q28 14 58 42 l0 108 q6 8 12 0 ZM178 196 l0 -68 q28 18 52 48 q10 2 10 -8 q-28 -34 -62 -56 l0 -14 q36 -28 60 -56 q4 -12 -8 -10 q-30 32 -52 50 l0 -86 q0 -18 12 -16 l32 0 q14 -2 12 40 q6 8 12 0 q2 -56 -24 -52 l-36 0 q-18 -2 -20 20 l0 208 q6 8 12 0 ZM78 170 q0 12 10 6 q14 -26 32 -64 q-4 -10 -12 -4 q-14 30 -30 62 Z" /><glyph glyph-name="" unicode="&#x63e3;" d="M166 200 l0 -52 l42 0 q14 -2 12 12 l0 36 q6 10 12 0 l0 -40 q2 -22 -20 -20 l-102 0 q-20 -2 -20 20 l0 40 q6 10 12 0 l0 -36 q0 -14 12 -12 l40 0 l0 52 q6 10 12 0 ZM50 196 l0 -40 l24 0 q8 -6 0 -12 l-24 0 l0 -70 q8 4 18 12 q12 2 8 -10 q-16 -12 -26 -16 l0 -76 q2 -26 -42 -12 q-8 10 4 12 q28 -12 26 4 l0 66 q-12 -6 -26 -10 q-12 4 -2 12 q16 6 28 12 l0 76 l-28 0 q-6 6 0 12 l28 0 l0 40 q6 8 12 0 ZM74 116 l168 0 q10 -6 0 -12 l-84 0 l-12 -24 l72 0 q22 0 20 -20 l0 -70 q2 -32 -40 -18 q-6 10 4 12 q26 -10 24 10 l0 62 q2 12 -12 12 l-22 0 l0 -92 q-6 -10 -12 0 l0 92 l-34 0 l0 -92 q-6 -10 -12 0 l0 92 l-22 0 q-12 0 -12 -12 l0 -84 q-6 -12 -12 0 l0 88 q0 20 20 20 l24 0 l12 24 l-70 0 q-8 6 0 12 Z" /><glyph glyph-name="" unicode="&#x641c;" d="M174 198 l0 -100 l38 0 q14 -2 12 12 l0 20 l-38 0 q-8 6 0 12 l38 0 l0 20 q2 12 -12 12 l-26 0 q-8 6 0 12 l30 0 q22 0 20 -20 l0 -60 q2 -22 -20 -20 l-42 0 l0 -20 l34 0 q28 0 18 -24 q-16 -26 -48 -44 q38 -16 68 -22 q6 -8 -2 -12 q-38 6 -78 26 q-32 -18 -76 -26 q-12 4 -4 12 q42 8 70 22 q-28 22 -46 56 l-8 0 q-8 6 0 12 l60 0 l0 20 l-40 0 q-20 -2 -20 20 l0 56 q0 16 12 20 q20 6 34 12 q12 -4 4 -12 q-12 -4 -32 -10 q-6 -2 -6 -12 l0 -18 l36 0 q8 -8 0 -12 l-36 0 l0 -20 q0 -14 12 -12 l36 0 l0 100 q6 8 12 0 ZM52 194 q6 8 12 0 l0 -48 l24 0 q10 -6 0 -12 l-24 0 l0 -54 l24 14 q10 0 6 -10 l-30 -18 l0 -82 q2 -26 -44 -8 q-4 10 6 12 q30 -14 26 0 l0 72 l-36 -18 q-10 2 -4 12 l40 20 l0 60 l-32 0 q-8 6 0 12 l32 0 l0 48 ZM166 6 q32 18 46 38 q6 10 -6 10 l-82 0 q10 -24 42 -48 Z" /><glyph glyph-name="" unicode="&#x641e;" d="M154 200 q2 10 14 4 q4 -12 8 -24 l64 0 q10 -6 0 -12 l-144 0 q-8 6 0 12 l66 0 q-2 8 -8 20 ZM48 196 q6 8 12 0 l0 -52 l28 0 q8 -6 0 -12 l-28 0 l0 -68 q12 6 26 12 q10 0 4 -10 q-12 -6 -30 -14 l0 -68 q2 -26 -44 -12 q-8 8 4 12 q30 -12 28 2 l0 62 q-16 -6 -32 -10 q-8 4 -2 10 q18 6 34 12 l0 72 l-32 0 q-8 6 0 12 l32 0 l0 52 ZM132 154 l72 0 q24 0 22 -18 l0 -18 q2 -20 -24 -18 l-70 0 q-22 -2 -22 20 l0 12 q0 22 22 22 ZM202 142 l-68 0 q-12 0 -12 -10 l0 -10 q0 -12 12 -10 l66 0 q16 -2 14 10 l0 10 q2 10 -12 10 ZM120 86 l96 0 q26 0 24 -24 l0 -80 q2 -20 -26 -22 q-12 0 -30 8 q-6 12 6 12 q16 -8 24 -8 q16 2 14 12 l0 76 q2 14 -14 14 l-92 0 q-12 0 -12 -14 l0 -92 q-6 -8 -12 0 l0 94 q0 24 22 24 ZM154 60 l30 0 q26 0 24 -22 l0 -30 q2 -20 -22 -18 l-34 0 q-22 -2 -22 20 l0 28 q0 22 24 22 ZM182 48 l-28 0 q-12 0 -12 -12 l0 -24 q0 -12 12 -10 l30 0 q14 -2 12 10 l0 24 q2 12 -14 12 Z" /><glyph glyph-name="" unicode="&#x64cd;" d="M54 190 l0 -48 l24 0 q10 -6 0 -12 l-24 0 l0 -60 q8 4 20 14 q10 0 6 -10 q-14 -12 -26 -18 l0 -76 q4 -24 -38 -8 q-6 10 4 12 q26 -12 22 2 l0 66 q-10 -6 -28 -10 q-10 4 -2 12 q12 2 30 10 l0 66 l-28 0 q-8 6 0 12 l28 0 l0 48 q6 10 12 0 ZM124 190 l72 0 q22 0 20 -20 l0 -14 q2 -22 -20 -20 l-72 0 q-20 -2 -20 20 l0 14 q0 20 20 20 ZM192 178 l-64 0 q-12 0 -12 -12 l0 -6 q0 -14 12 -12 l64 0 q14 -2 12 12 l0 6 q2 12 -12 12 ZM110 126 l22 0 q22 -2 20 -20 l0 -20 q2 -20 -22 -18 l-20 0 q-22 -2 -22 18 l0 18 q0 22 22 22 ZM192 126 l24 0 q22 0 20 -20 l0 -18 q2 -22 -20 -20 l-24 0 q-18 -2 -20 20 l0 18 q0 18 20 20 ZM128 114 l-16 0 q-12 0 -12 -12 l0 -12 q0 -12 12 -10 l16 0 q14 -2 12 10 l0 12 q2 12 -12 12 ZM212 114 l-16 0 q-12 0 -12 -12 l0 -10 q0 -14 12 -12 l16 0 q14 -2 12 12 l0 10 q2 12 -12 12 ZM156 70 q6 10 12 0 l0 -18 l74 0 q10 -6 0 -12 l-68 0 q30 -38 74 -58 q4 -10 -6 -12 q-40 18 -74 58 l0 -58 q-6 -12 -12 0 l0 58 q-32 -44 -76 -58 q-10 0 -4 12 q44 16 74 58 l-62 0 q-8 6 0 12 l68 0 l0 18 Z" /><glyph glyph-name="" unicode="&#x6548;" d="M60 194 q2 12 12 4 q8 -12 12 -28 l52 0 q4 -6 0 -12 l-124 0 q-6 6 0 12 l58 0 q-4 16 -10 24 ZM138 68 q-2 -10 -10 -4 q-8 20 -14 36 q-6 -32 -26 -68 q18 -24 34 -56 q-2 -10 -10 -4 q-14 24 -32 50 q-24 -30 -58 -54 q-12 -2 -8 10 q34 24 58 54 q-18 24 -34 48 q-6 -10 -14 -20 q-10 -4 -10 8 q26 34 38 80 q10 6 12 -4 q-6 -22 -20 -52 q20 -26 36 -52 q16 34 26 76 q-6 18 -12 28 q2 12 10 6 q18 -38 34 -82 ZM208 146 l-46 0 l-4 -22 q12 -58 30 -90 q20 46 20 112 ZM156 198 q6 8 12 0 l-4 -40 l76 0 q8 -6 0 -12 l-20 0 q0 -70 -24 -126 q26 -30 50 -48 q6 -12 -6 -10 q-26 18 -52 48 q-26 -30 -58 -48 q-12 0 -6 10 q38 24 56 48 q-20 42 -30 84 l-6 -20 q-10 -4 -10 6 q18 52 22 108 Z" /><glyph glyph-name="" unicode="&#x6562;" d="M166 200 l-2 -28 l78 0 q8 -6 0 -12 l-26 0 q2 -78 -24 -128 q26 -34 54 -52 q6 -12 -6 -12 q-32 22 -56 52 q-22 -30 -56 -52 q-14 -2 -8 10 q34 22 56 54 q-18 32 -28 74 l-12 -34 q-10 -8 -12 4 q26 58 30 124 q6 10 12 0 ZM32 196 l50 0 q22 0 20 -16 q-2 -18 -6 -36 l36 0 q8 -6 0 -12 l-20 0 l0 -118 l16 4 q10 -4 2 -12 l-18 -4 l0 -34 q-6 -8 -12 0 l0 32 l-90 -16 q-8 6 0 12 l22 4 l0 132 l-22 0 q-8 6 0 12 l74 0 q4 14 6 32 q2 8 -12 8 l-46 0 q-8 6 0 12 ZM204 160 l-42 0 l-6 -30 q10 -54 28 -86 q20 44 20 116 ZM100 132 l-56 0 l0 -32 l56 0 l0 32 ZM100 88 l-56 0 l0 -36 l56 0 l0 36 ZM100 40 l-56 0 l0 -38 l56 10 l0 28 Z" /><glyph glyph-name="" unicode="&#x6570;" d="M78 82 l0 42 q-22 -26 -54 -42 q-12 2 -6 12 q28 12 52 40 l-54 0 q-10 6 0 12 l62 0 l0 50 q6 10 12 0 l0 -50 l48 0 q8 -6 0 -12 l-40 0 q20 -22 36 -42 q0 -12 -10 -8 q-16 20 -34 40 l0 -42 q-6 -8 -12 0 ZM76 70 l-4 -8 l48 0 q22 -2 14 -24 q-6 -18 -28 -42 q16 -6 24 -12 q6 -8 -6 -10 q-10 6 -26 12 q-32 -16 -78 -20 q-12 4 -2 12 q34 2 64 14 q-22 12 -50 20 q-8 4 -2 12 q12 12 22 26 l-40 0 q-6 6 0 12 l46 0 l6 12 q10 6 12 -4 ZM180 192 q-2 -18 -4 -30 l66 0 q8 -6 0 -12 l-16 0 q2 -70 -22 -120 q20 -34 38 -54 q4 -12 -8 -10 q-20 22 -38 54 q-24 -32 -52 -54 q-12 -4 -8 8 q30 26 52 56 q-20 36 -28 82 l-12 -24 q-8 -4 -10 6 q26 52 30 100 q8 8 12 -2 ZM126 192 q8 4 10 -6 q-8 -18 -22 -36 q-10 -4 -10 6 q14 18 22 36 ZM214 150 l-42 0 l-4 -16 q10 -58 28 -92 q18 42 18 108 ZM116 50 l-50 0 q-12 -18 -24 -30 q28 -8 50 -20 q22 20 30 40 q4 10 -6 10 ZM28 184 q2 10 10 6 q10 -12 18 -34 q-4 -10 -12 -4 q-4 12 -16 32 Z" /><glyph glyph-name="" unicode="&#x6587;" d="M116 194 q2 12 12 6 q6 -12 12 -34 l100 0 q8 -6 0 -12 l-42 0 q-10 -72 -56 -126 q44 -34 98 -50 q6 -10 -4 -12 q-56 16 -104 52 q-50 -36 -120 -52 q-12 2 -4 12 q68 16 114 50 q-46 46 -60 126 l-44 0 q-10 6 0 12 l108 0 q-2 14 -10 28 ZM186 154 l-110 0 q12 -74 56 -118 q42 50 54 118 Z" /><glyph glyph-name="" unicode="&#x65ad;" d="M36 88 q-6 6 0 12 l38 0 l0 86 q8 12 12 0 l0 -86 l40 0 q10 -6 0 -12 l-38 0 q26 -40 32 -64 q0 -14 -10 -6 q-10 28 -24 52 l0 -78 q-6 -10 -12 0 l0 70 q-14 -36 -32 -52 q-10 -4 -8 8 q22 22 36 70 l-34 0 ZM120 172 q8 6 12 -4 q-12 -40 -28 -62 q-10 -4 -10 6 q14 20 26 60 ZM146 76 l0 84 q0 18 24 20 q26 0 60 14 q12 -2 4 -12 q-32 -12 -60 -14 q-16 0 -16 -12 l0 -40 l84 0 q8 -6 0 -12 l-30 0 l0 -136 q-6 -10 -12 0 l0 136 l-42 0 l0 -28 q2 -64 -16 -106 q-10 -6 -12 4 q18 42 16 102 ZM34 168 q4 10 12 4 q16 -26 24 -60 q-4 -12 -12 -4 q-6 28 -24 60 ZM18 180 q6 8 12 0 l0 -192 q0 -10 8 -8 l84 0 q8 -6 0 -12 l-88 0 q-16 -2 -16 18 l0 194 Z" /><glyph glyph-name="" unicode="&#x65af;" d="M108 158 l-60 0 l0 -28 l60 0 l0 28 ZM108 118 l-60 0 l0 -28 l60 0 l0 28 ZM108 78 l-60 0 l0 -32 l60 0 l0 32 ZM88 20 q2 12 10 4 q14 -22 24 -50 q-2 -10 -12 -2 q-8 22 -22 48 ZM150 52 l0 110 q0 14 12 16 q36 6 70 10 q10 -4 2 -12 q-32 -4 -66 -8 q-6 -2 -6 -10 l0 -30 l82 0 q8 -6 0 -12 l-30 0 l0 -148 q-6 -8 -12 0 l0 148 l-40 0 l0 -66 q2 -46 -22 -82 q-10 -4 -10 8 q22 30 20 76 ZM12 34 q-8 6 0 12 l24 0 l0 112 l-20 0 q-6 6 0 12 l20 0 l0 28 q6 8 12 0 l0 -28 l60 0 l0 28 q6 8 12 0 l0 -28 l20 0 q8 -6 0 -12 l-20 0 l0 -112 l22 0 q8 -6 0 -12 l-130 0 ZM52 24 q12 6 12 -6 q-14 -24 -34 -48 q-12 -4 -10 8 q16 18 32 46 Z" /><glyph glyph-name="" unicode="&#x65b0;" d="M16 116 l36 0 q-6 18 -12 30 q0 10 10 6 q10 -18 16 -36 l22 0 q16 24 20 36 q8 4 10 -6 q-8 -18 -16 -30 l42 0 q8 -6 0 -12 l-60 0 l0 -28 l48 0 q8 -6 0 -12 l-48 0 l0 -80 q4 -26 -48 -12 q-4 10 6 12 q34 -12 30 2 l0 78 l-56 0 q-8 6 0 12 l56 0 l0 28 l-56 0 q-10 6 0 12 ZM234 192 q10 -2 4 -12 q-30 -10 -66 -12 q-8 0 -8 -8 l0 -44 l80 0 q8 -6 0 -12 l-24 0 l0 -136 q-6 -8 -12 0 l0 136 l-44 0 l0 -34 q2 -66 -28 -102 q-12 -4 -10 8 q28 32 26 98 l0 90 q0 16 18 16 q28 0 64 12 ZM74 174 q-2 14 -6 20 q2 12 12 6 q4 -8 8 -26 l48 0 q8 -6 0 -12 l-116 0 q-8 6 0 12 l54 0 ZM46 48 q8 6 12 -4 q-12 -28 -30 -56 q-14 -4 -10 8 q16 24 28 52 ZM94 44 q-2 10 10 6 q12 -24 22 -54 q-4 -10 -12 -4 q-8 26 -20 52 Z" /><glyph glyph-name="" unicode="&#x65b9;" d="M124 202 q12 -18 16 -30 l102 0 q10 -6 0 -12 l-148 0 q-2 -26 -4 -44 l106 0 q28 0 26 -24 q2 -38 -8 -84 q-10 -42 -44 -44 q-40 2 -66 14 q-6 10 6 10 q32 -12 60 -12 q24 2 32 36 q10 44 8 78 q2 14 -16 14 l-106 0 q-12 -90 -70 -138 q-12 -2 -8 8 q68 58 72 186 l-72 0 q-8 6 0 12 l118 0 q-6 12 -14 24 q0 12 10 6 Z" /><glyph glyph-name="" unicode="&#x65e5;" d="M62 188 l140 0 q22 0 20 -20 l0 -168 q2 -22 -20 -20 l-140 0 q-20 -4 -20 20 l0 168 q0 20 20 20 ZM198 176 l-132 0 q-12 0 -12 -12 l0 -68 l156 0 l0 68 q2 12 -12 12 ZM210 84 l-156 0 l0 -80 q0 -14 12 -12 l132 0 q14 -2 12 12 l0 80 Z" /></font>
</defs>
</svg>
